<svg width="174" height="31" viewBox="0 0 174 31" fill="none" xmlns="http://www.w3.org/2000/svg">
<path d="M5.08527 4.67623L13.1741 0.000488281L21.2629 4.67623L18.2891 6.40357L13.1741 3.45518L8.05911 6.40357L5.08527 4.67623ZM21.2629 10.573L18.2891 8.84568L13.1741 11.7941L8.05911 8.84568L5.08527 10.573V14.0277L10.2002 16.976V22.8728L13.1741 24.6002L16.148 22.8728V16.976L21.2629 14.0277V10.573ZM21.2629 19.9245V16.4698L18.2891 18.1971V21.6518L21.2629 19.9245ZM23.3743 21.1456L18.2593 24.0939V27.5486L26.3482 22.8728V13.5214L23.3743 15.2488V21.1456ZM20.4005 7.62463L23.3743 9.35196V12.8067L26.3482 11.0793V7.62463L23.3743 5.89728L20.4005 7.62463ZM10.2002 25.3448V28.7995L13.1741 30.5268L16.148 28.7995V25.3448L13.1741 27.0721L10.2002 25.3448ZM5.08527 19.9245L8.05911 21.6518V18.1971L5.08527 16.4698V19.9245ZM10.2002 7.62463L13.1741 9.35196L16.148 7.62463L13.1741 5.89728L10.2002 7.62463ZM2.97383 9.35196L5.94766 7.62463L2.97383 5.89728L0 7.62463V11.0793L2.97383 12.8067V9.35196ZM2.97383 15.2488L0 13.5214V22.8728L8.0888 27.5486V24.0939L2.97383 21.1456V15.2488Z" fill="#F0B90B"/>
<path d="M49.793 19.1581V19.1096C49.793 16.8283 48.5814 15.6876 46.6184 14.9352C47.8302 14.2557 48.848 13.1877 48.848 11.2705V11.2219C48.848 8.55227 46.7154 6.82912 43.2499 6.82912H35.3737V23.8179H43.4437C47.2727 23.8179 49.793 22.2646 49.793 19.1581ZM45.1401 11.9015C45.1401 13.1634 44.098 13.6974 42.4501 13.6974H39.0089V10.1055H42.6925C44.2677 10.1055 45.1401 10.7365 45.1401 11.8529V11.9015ZM46.0852 18.697C46.0852 19.959 45.0916 20.5415 43.4437 20.5415H39.0089V16.804H43.3225C45.237 16.804 46.0852 17.5077 46.0852 18.6484V18.697Z" fill="#F0B90B"/>
<path d="M68.1792 23.8179V6.82912H64.4956V17.2893L56.5467 6.82912H53.1055V23.8179H56.7891V13.0179L65.0045 23.8179H68.1792Z" fill="#F0B90B"/>
<path d="M86.9131 19.1581V19.1096C86.9131 16.8283 85.7015 15.6876 83.7384 14.9352C84.9502 14.2557 85.968 13.1877 85.968 11.2705V11.2219C85.968 8.55227 83.8355 6.82912 80.3699 6.82912H72.4938V23.8179H80.5638C84.3928 23.8179 86.9131 22.2646 86.9131 19.1581ZM82.2602 11.9015C82.2602 13.1634 81.2181 13.6974 79.5702 13.6974H76.1289V10.1055H79.8125C81.3878 10.1055 82.2602 10.7365 82.2602 11.8529V11.9015ZM83.2054 18.697C83.2054 19.959 82.2117 20.5415 80.5638 20.5415H76.1289V16.804H80.4426C82.3571 16.804 83.2054 17.5077 83.2054 18.6484V18.697Z" fill="#F0B90B"/>
<path d="M109.579 20.8158L107.656 18.8742C106.195 20.2332 104.857 21.0827 102.763 21.0827C99.5013 21.0827 97.1401 18.3645 97.1401 15.0152C97.1401 11.6661 99.5013 8.9964 102.763 8.9964C104.71 8.9964 106.171 9.84584 107.534 11.1079L109.457 8.89933C107.826 7.34607 105.928 6.25393 102.787 6.25393C97.6269 6.25393 94 10.2099 94 15.0638C94 19.9662 97.7 23.8251 102.666 23.8251C105.855 23.8251 107.802 22.6602 109.579 20.8158Z" fill="#F0B90B"/>
<path d="M124.094 16.3747V23.5343H127.088V6.54543H124.094V13.6079H115.963V6.54543H112.969V23.5343H115.963V16.3747H124.094Z" fill="#F0B90B"/>
<path d="M140.519 6.42434H137.744L130.246 23.5345H133.313L135.066 19.4329H143.124L144.852 23.5345H148.016L140.519 6.42434ZM142.028 16.7874H136.162L139.082 9.99197L142.028 16.7874Z" fill="#F0B90B"/>
<path d="M151.352 6.54543V23.5343H154.346V6.54543H151.352Z" fill="#F0B90B"/>
<path d="M171.054 18.292L161.925 6.54543H159.151V23.5343H162.096V11.4479L171.492 23.5343H174V6.54543H171.054V18.292Z" fill="#F0B90B"/>
</svg>
