<svg width="2000" height="2000" viewBox="0 0 2000 2000" fill="none" xmlns="http://www.w3.org/2000/svg">
<g clip-path="url(#clip0_45_41)">
<g opacity="0.6">
<mask id="mask0_45_41" style="mask-type:alpha" maskUnits="userSpaceOnUse" x="1466" y="1138" width="386" height="400">
<ellipse cx="1659.08" cy="1337.67" rx="189.503" ry="202.522" transform="rotate(30 1659.08 1337.67)" fill="#EA7B19"/>
</mask>
<g mask="url(#mask0_45_41)">
<ellipse cx="1659.08" cy="1337.67" rx="189.503" ry="202.522" transform="rotate(30 1659.08 1337.67)" fill="#1D202D"/>
</g>
<mask id="mask1_45_41" style="mask-type:alpha" maskUnits="userSpaceOnUse" x="1439" y="1124" width="398" height="403">
<path d="M1809.16 1424.32C1753.24 1521.19 1631.45 1555.57 1537.14 1501.12C1442.83 1446.67 1411.71 1324 1467.63 1227.14C1523.56 1130.27 1645.35 1095.89 1739.66 1150.34C1833.97 1204.79 1865.09 1327.46 1809.16 1424.32Z" fill="#C4C4C4"/>
</mask>
<g mask="url(#mask1_45_41)">
<path d="M1809.16 1424.32C1753.24 1521.19 1631.45 1555.57 1537.14 1501.12C1442.83 1446.67 1411.71 1324 1467.63 1227.14C1523.56 1130.27 1645.35 1095.89 1739.66 1150.34C1833.97 1204.79 1865.09 1327.46 1809.16 1424.32Z" fill="#222634"/>
</g>
<mask id="mask2_45_41" style="mask-type:alpha" maskUnits="userSpaceOnUse" x="1483" y="1167" width="310" height="317">
<path d="M1770.8 1402.17C1726.86 1478.28 1631.79 1505.65 1558.45 1463.31C1485.11 1420.97 1461.27 1324.94 1505.21 1248.84C1549.15 1172.73 1644.23 1145.36 1717.57 1187.7C1790.91 1230.04 1814.74 1326.07 1770.8 1402.17Z" fill="#C4C4C4"/>
</mask>
<g mask="url(#mask2_45_41)">
<ellipse cx="1638.01" cy="1325.51" rx="159.472" ry="165.49" transform="rotate(30 1638.01 1325.51)" fill="#1D202D"/>
<ellipse cx="1648.1" cy="1329.49" rx="151.805" ry="157.533" transform="rotate(30 1648.1 1329.49)" fill="#2E3240"/>
</g>
<path d="M1575.01 1413.58C1573.63 1412.78 1572.67 1411.58 1572.12 1409.98C1571.71 1408.46 1571.94 1406.94 1572.81 1405.42L1581.16 1390.96C1571.51 1383.73 1564.14 1376.07 1559.04 1367.98C1554.15 1359.84 1551.52 1351.8 1551.12 1343.85C1550.87 1335.99 1552.47 1328.74 1555.94 1322.11C1556.65 1320.87 1557.66 1320.08 1558.97 1319.73C1560.41 1319.46 1561.76 1319.69 1563 1320.4L1590.58 1336.33C1592.38 1337.37 1593.61 1338.44 1594.26 1339.55C1594.9 1340.66 1595.45 1342.26 1595.9 1344.36C1595.81 1354.41 1601.51 1362.75 1612.98 1369.37C1620.45 1373.68 1626.82 1375.89 1632.1 1376C1637.6 1376.06 1641.51 1374.08 1643.81 1370.09C1645.48 1367.2 1645.73 1364.22 1644.55 1361.15C1643.59 1358.02 1641.23 1354.45 1637.46 1350.44C1633.91 1346.37 1628.3 1340.93 1620.62 1334.11C1605.8 1321.14 1596.2 1308.89 1591.8 1297.35C1587.4 1285.81 1588.82 1273.77 1596.06 1261.24C1602.5 1250.08 1611.96 1242.95 1624.43 1239.87C1636.98 1236.64 1650.8 1238.1 1665.88 1244.23L1674.23 1229.77C1675.1 1228.25 1676.3 1227.29 1677.83 1226.88C1679.49 1226.56 1681.01 1226.8 1682.39 1227.59L1700.44 1238.01C1701.96 1238.89 1702.92 1240.09 1703.33 1241.61C1703.75 1243.13 1703.51 1244.65 1702.64 1246.17L1694.05 1261.05C1702.22 1267.97 1708.39 1275.48 1712.56 1283.58C1716.81 1291.55 1719.07 1299.28 1719.34 1306.79C1719.84 1314.24 1718.75 1320.59 1716.08 1325.85C1715.37 1327.09 1714.32 1327.95 1712.93 1328.44C1711.62 1328.78 1710.35 1328.6 1709.1 1327.88L1680.07 1311.12C1676.89 1309.28 1675.26 1306.68 1675.17 1303.33C1676.01 1299.95 1675.19 1296.27 1672.71 1292.26C1670.44 1288.2 1666.82 1284.73 1661.85 1281.86C1656.04 1278.51 1650.95 1276.95 1646.58 1277.18C1642.21 1277.41 1638.87 1279.52 1636.56 1283.52C1634.25 1287.51 1634.5 1291.88 1637.29 1296.61C1640.17 1301.21 1646.53 1307.92 1656.37 1316.72C1668.02 1326.57 1676.68 1335.52 1682.35 1343.57C1688.1 1351.48 1691.15 1359.3 1691.48 1367.03C1691.89 1374.61 1689.63 1382.68 1684.7 1391.22C1677.7 1403.34 1667.44 1410.73 1653.92 1413.4C1640.54 1416.14 1625.76 1414.13 1609.58 1407.36L1601.22 1421.82C1600.35 1423.34 1599.15 1424.3 1597.62 1424.71C1596.1 1425.11 1594.58 1424.88 1593.06 1424L1575.01 1413.58Z" fill="#464B5E"/>
</g>
</g>
<defs>
<clipPath id="clip0_45_41">
<rect width="415" height="415" fill="white" transform="translate(1438 1123)"/>
</clipPath>
</defs>
</svg>
