<svg width="2000" height="2000" viewBox="0 0 2000 2000" fill="none" xmlns="http://www.w3.org/2000/svg">
<g opacity="0.6">
<path d="M1676.63 1312.56H1637.2L1635.13 1314.64C1635.13 1314.64 1635.13 1316.71 1637.2 1316.71H1653.8C1676.63 1316.71 1697.38 1335.42 1697.38 1360.36C1697.38 1379.07 1684.93 1395.7 1666.25 1401.94C1664.18 1410.25 1655.88 1418.56 1645.5 1418.56C1637.2 1418.56 1628.9 1410.25 1626.83 1401.94H1614.38C1601.93 1401.94 1593.63 1393.62 1593.63 1381.15C1593.63 1368.68 1601.93 1360.36 1614.38 1360.36H1653.8L1655.88 1358.29C1655.88 1358.29 1655.88 1356.21 1653.8 1356.21H1637.2C1614.38 1356.21 1593.63 1337.5 1593.63 1312.56C1593.63 1293.85 1606.08 1277.22 1624.75 1270.99C1626.83 1262.67 1635.13 1254.36 1645.5 1254.36C1655.88 1254.36 1662.1 1260.59 1664.18 1270.99H1676.63C1689.08 1270.99 1697.38 1279.3 1697.38 1291.77C1697.38 1304.24 1689.08 1312.56 1676.63 1312.56Z" fill="url(#paint0_linear_45_41)"/>
<path d="M1521 1420.64C1532.46 1420.64 1541.75 1411.34 1541.75 1399.86C1541.75 1388.38 1532.46 1379.07 1521 1379.07C1509.54 1379.07 1500.25 1388.38 1500.25 1399.86C1500.25 1411.34 1509.54 1420.64 1521 1420.64Z" fill="url(#paint1_linear_45_41)"/>
<path d="M1790.75 1275.14C1790.75 1286.62 1781.46 1295.93 1770 1295.93C1758.54 1295.93 1749.25 1286.62 1749.25 1275.14C1749.25 1263.66 1758.54 1254.36 1770 1254.36C1781.46 1254.36 1790.75 1263.66 1790.75 1275.14Z" fill="url(#paint2_linear_45_41)"/>
<path fill-rule="evenodd" clip-rule="evenodd" d="M1521 1192H1770C1815.65 1192 1853 1229.41 1853 1275.14V1399.86C1853 1445.59 1815.65 1483 1770 1483H1521C1475.35 1483 1438 1445.59 1438 1399.86V1275.14C1438 1229.41 1475.35 1192 1521 1192ZM1770 1441.43C1792.83 1441.43 1811.5 1422.72 1811.5 1399.86V1275.14C1811.5 1252.28 1792.83 1233.57 1770 1233.57H1521C1498.18 1233.57 1479.5 1252.28 1479.5 1275.14V1399.86C1479.5 1422.72 1498.18 1441.43 1521 1441.43H1770Z" fill="url(#paint3_linear_45_41)"/>
</g>
<defs>
<linearGradient id="paint0_linear_45_41" x1="1656.46" y1="1213.16" x2="1656.46" y2="1428.67" gradientUnits="userSpaceOnUse">
<stop stop-color="#252A34" stop-opacity="0.58"/>
<stop offset="1" stop-color="#393E4B" stop-opacity="0.21"/>
</linearGradient>
<linearGradient id="paint1_linear_45_41" x1="1656.46" y1="1213.16" x2="1656.46" y2="1428.67" gradientUnits="userSpaceOnUse">
<stop stop-color="#252A34" stop-opacity="0.58"/>
<stop offset="1" stop-color="#393E4B" stop-opacity="0.21"/>
</linearGradient>
<linearGradient id="paint2_linear_45_41" x1="1656.46" y1="1213.16" x2="1656.46" y2="1428.67" gradientUnits="userSpaceOnUse">
<stop stop-color="#252A34" stop-opacity="0.58"/>
<stop offset="1" stop-color="#393E4B" stop-opacity="0.21"/>
</linearGradient>
<linearGradient id="paint3_linear_45_41" x1="1656.46" y1="1213.16" x2="1656.46" y2="1428.67" gradientUnits="userSpaceOnUse">
<stop stop-color="#252A34" stop-opacity="0.58"/>
<stop offset="1" stop-color="#393E4B" stop-opacity="0.21"/>
</linearGradient>
</defs>
</svg>
