<svg width="112" height="149" viewBox="0 0 112 149" fill="none" xmlns="http://www.w3.org/2000/svg">
<g clip-path="url(#clip0_15_28595)">
<path d="M79.4427 50.0885C79.4427 59.4659 71.8086 67.0677 62.3914 67.0677C52.9742 67.0677 45.3401 59.4659 45.3401 50.0885C45.3401 40.7112 52.9742 33.1094 62.3914 33.1094C71.8086 33.1094 79.4427 40.7112 79.4427 50.0885Z" fill="url(#paint0_linear_15_28595)"/>
<path fill-rule="evenodd" clip-rule="evenodd" d="M-17.7499 113.76C-22.8653 109.516 -24.5704 102.724 -24.5704 96.7813L-46.7372 84.8958C-49.2949 84.0469 -51 81.5 -51 78.9531C-51 76.4063 -50.1474 73.8594 -48.4423 72.1615L-16.0448 39.901C-14.3396 38.2031 -12.6345 37.3542 -10.9294 37.3542L14.6476 35.6563C21.4681 28.8646 28.2887 22.0729 35.9618 16.9792C47.8977 7.64062 62.3913 2.54688 75.1798 0.84896L82.8529 0C91.3786 0 99.0517 2.54688 104.167 7.64063C110.135 13.5833 112.693 20.375 111.84 28.8646L110.988 36.5052C110.135 50.0885 105.02 64.5208 95.6414 76.4063C90.526 83.1979 84.558 89.9896 78.5901 95.9323L76.8849 97.6302L75.1798 123.099C75.1798 124.797 74.3273 126.495 72.6221 128.193L40.2246 160.453C38.5195 162.151 36.8143 163 34.2566 163H33.4041C30.8464 163 29.1412 161.302 27.4361 158.755L15.5002 136.682H14.6476C8.67964 136.682 2.71168 134.135 -1.55115 129.891L-17.7499 113.76ZM36.8143 140.078L58.1285 118.005L59.8336 113.76H58.9811C57.4884 114.751 56.0683 115.742 54.6785 116.712C51.3053 119.066 48.1102 121.295 44.4874 123.099L31.6989 130.74L36.8143 140.078ZM77.7375 18.6771C66.6541 19.526 55.5708 23.7708 46.1926 30.5625C38.5195 36.5052 30.8463 42.4479 24.8784 49.2396C16.3527 57.7292 9.53221 67.0677 3.56424 77.2552L-5.81399 92.5365C-6.66655 94.2344 -6.66655 95.0833 -6.66655 95.0833C-7.51912 97.6302 -7.51912 100.177 -5.81399 101.875L10.3848 118.005C12.0899 118.854 14.6476 119.703 17.2053 118.854C18.0579 118.854 18.9104 118.854 19.763 118.005L35.9618 109.516C46.1926 103.573 55.5708 96.7813 64.0964 88.2917L67.5067 84.8958C72.6221 79.8021 77.7375 73.8594 82.8529 67.0677C89.6734 56.8802 93.9363 46.6927 94.7888 35.6563L95.6414 28.0156C95.6414 24.6198 94.7888 22.0729 93.0837 20.375C91.3786 18.6771 88.8209 17.8281 86.2632 17.8281H85.4106L77.7375 18.6771ZM-0.698591 54.3333H-5.81399L-27.9807 75.5573L-18.6025 81.5L-10.9294 69.6146C-8.37169 64.5208 -4.96142 59.4271 -1.55115 55.1823C-0.698588 55.1823 -0.698591 54.3333 -0.698591 54.3333Z" fill="url(#paint1_linear_15_28595)"/>
</g>
<defs>
<linearGradient id="paint0_linear_15_28595" x1="34.8062" y1="0" x2="34.8062" y2="163" gradientUnits="userSpaceOnUse">
<stop stop-color="#5C6680" stop-opacity="0.13"/>
<stop offset="1" stop-color="#5C6680" stop-opacity="0.1"/>
</linearGradient>
<linearGradient id="paint1_linear_15_28595" x1="34.8062" y1="0" x2="34.8062" y2="163" gradientUnits="userSpaceOnUse">
<stop stop-color="#5C6680" stop-opacity="0.13"/>
<stop offset="1" stop-color="#5C6680" stop-opacity="0.1"/>
</linearGradient>
<clipPath id="clip0_15_28595">
<rect width="112" height="149" fill="white"/>
</clipPath>
</defs>
</svg>
