<svg width="2000" height="2000" viewBox="0 0 2000 2000" fill="none" xmlns="http://www.w3.org/2000/svg">
<g opacity="0.6">
<path d="M1716.06 1138H1737.44C1784.5 1138 1823 1176.5 1823 1223.56V1247.08C1823 1259.92 1814.44 1268.47 1801.61 1268.47C1788.78 1268.47 1780.22 1259.92 1780.22 1247.08V1223.56C1780.22 1200.03 1760.97 1180.78 1737.44 1180.78H1716.06C1703.22 1180.78 1694.67 1172.22 1694.67 1159.39C1694.67 1146.56 1703.22 1138 1716.06 1138Z" fill="url(#paint0_linear_45_41)"/>
<path d="M1780.22 1416.06C1780.22 1403.22 1788.78 1394.67 1801.61 1394.67C1814.44 1394.67 1823 1403.22 1823 1416.06V1437.44C1823 1484.5 1784.5 1523 1737.44 1523H1716.06C1703.22 1523 1694.67 1514.44 1694.67 1501.61C1694.67 1488.78 1703.22 1480.22 1716.06 1480.22H1737.44C1760.97 1480.22 1780.22 1460.97 1780.22 1437.44V1416.06Z" fill="url(#paint1_linear_45_41)"/>
<path d="M1544.94 1480.22H1523.56C1500.03 1480.22 1480.78 1460.97 1480.78 1437.44V1416.06C1480.78 1403.22 1472.22 1394.67 1459.39 1394.67C1446.56 1394.67 1438 1403.22 1438 1416.06V1437.44C1438 1484.5 1476.5 1523 1523.56 1523H1544.94C1557.78 1523 1566.33 1514.44 1566.33 1501.61C1566.33 1488.78 1557.78 1480.22 1544.94 1480.22Z" fill="url(#paint2_linear_45_41)"/>
<path d="M1480.78 1244.94C1480.78 1257.78 1472.22 1266.33 1459.39 1266.33C1446.56 1266.33 1438 1255.64 1438 1244.94V1223.56C1438 1176.5 1476.5 1138 1523.56 1138H1544.94C1557.78 1138 1566.33 1146.56 1566.33 1159.39C1566.33 1172.22 1557.78 1180.78 1544.94 1180.78H1523.56C1500.03 1180.78 1480.78 1200.03 1480.78 1223.56V1244.94Z" fill="url(#paint3_linear_45_41)"/>
<path fill-rule="evenodd" clip-rule="evenodd" d="M1630.5 1244.94C1630.5 1221.42 1611.25 1202.17 1587.72 1202.17H1544.94C1521.42 1202.17 1502.17 1221.42 1502.17 1244.94V1287.72C1502.17 1311.25 1521.42 1330.5 1544.94 1330.5H1587.72C1611.25 1330.5 1630.5 1311.25 1630.5 1287.72V1244.94ZM1544.94 1287.72V1244.94H1587.72V1287.72H1544.94Z" fill="url(#paint4_linear_45_41)"/>
<path fill-rule="evenodd" clip-rule="evenodd" d="M1758.83 1373.28V1416.06C1758.83 1439.58 1739.58 1458.83 1716.06 1458.83H1673.28C1649.75 1458.83 1630.5 1439.58 1630.5 1416.06V1373.28C1630.5 1349.75 1649.75 1330.5 1673.28 1330.5H1716.06C1739.58 1330.5 1758.83 1349.75 1758.83 1373.28ZM1716.06 1373.28H1673.28V1416.06H1716.06V1373.28Z" fill="url(#paint5_linear_45_41)"/>
<path d="M1673.28 1309.11H1694.67C1707.5 1309.11 1716.06 1300.56 1716.06 1287.72V1244.94H1737.44C1750.28 1244.94 1758.83 1236.39 1758.83 1223.56C1758.83 1210.72 1750.28 1202.17 1737.44 1202.17H1694.67C1681.83 1202.17 1673.28 1210.72 1673.28 1223.56V1266.33C1660.44 1266.33 1651.89 1274.89 1651.89 1287.72C1651.89 1300.56 1660.44 1309.11 1673.28 1309.11Z" fill="url(#paint6_linear_45_41)"/>
<path d="M1523.56 1351.89H1587.72C1600.56 1351.89 1609.11 1360.45 1609.11 1373.28V1437.45C1609.11 1450.28 1600.56 1458.83 1587.72 1458.83C1574.89 1458.83 1566.33 1450.28 1566.33 1437.45V1394.67H1523.56C1510.72 1394.67 1502.17 1386.11 1502.17 1373.28C1502.17 1360.45 1510.72 1351.89 1523.56 1351.89Z" fill="url(#paint7_linear_45_41)"/>
</g>
<defs>
<linearGradient id="paint0_linear_45_41" x1="1640.67" y1="1165.99" x2="1640.67" y2="1451.11" gradientUnits="userSpaceOnUse">
<stop stop-color="#252A34" stop-opacity="0.58"/>
<stop offset="1" stop-color="#393E4B" stop-opacity="0.21"/>
</linearGradient>
<linearGradient id="paint1_linear_45_41" x1="1640.67" y1="1165.99" x2="1640.67" y2="1451.11" gradientUnits="userSpaceOnUse">
<stop stop-color="#252A34" stop-opacity="0.58"/>
<stop offset="1" stop-color="#393E4B" stop-opacity="0.21"/>
</linearGradient>
<linearGradient id="paint2_linear_45_41" x1="1640.67" y1="1165.99" x2="1640.67" y2="1451.11" gradientUnits="userSpaceOnUse">
<stop stop-color="#252A34" stop-opacity="0.58"/>
<stop offset="1" stop-color="#393E4B" stop-opacity="0.21"/>
</linearGradient>
<linearGradient id="paint3_linear_45_41" x1="1640.67" y1="1165.99" x2="1640.67" y2="1451.11" gradientUnits="userSpaceOnUse">
<stop stop-color="#252A34" stop-opacity="0.58"/>
<stop offset="1" stop-color="#393E4B" stop-opacity="0.21"/>
</linearGradient>
<linearGradient id="paint4_linear_45_41" x1="1640.67" y1="1165.99" x2="1640.67" y2="1451.11" gradientUnits="userSpaceOnUse">
<stop stop-color="#252A34" stop-opacity="0.58"/>
<stop offset="1" stop-color="#393E4B" stop-opacity="0.21"/>
</linearGradient>
<linearGradient id="paint5_linear_45_41" x1="1640.67" y1="1165.99" x2="1640.67" y2="1451.11" gradientUnits="userSpaceOnUse">
<stop stop-color="#252A34" stop-opacity="0.58"/>
<stop offset="1" stop-color="#393E4B" stop-opacity="0.21"/>
</linearGradient>
<linearGradient id="paint6_linear_45_41" x1="1640.67" y1="1165.99" x2="1640.67" y2="1451.11" gradientUnits="userSpaceOnUse">
<stop stop-color="#252A34" stop-opacity="0.58"/>
<stop offset="1" stop-color="#393E4B" stop-opacity="0.21"/>
</linearGradient>
<linearGradient id="paint7_linear_45_41" x1="1640.67" y1="1165.99" x2="1640.67" y2="1451.11" gradientUnits="userSpaceOnUse">
<stop stop-color="#252A34" stop-opacity="0.58"/>
<stop offset="1" stop-color="#393E4B" stop-opacity="0.21"/>
</linearGradient>
</defs>
</svg>
