<svg width="2000" height="2000" viewBox="0 0 2000 2000" fill="none" xmlns="http://www.w3.org/2000/svg">
<g opacity="0.6">
<path d="M1644 1120C1530.7 1120 1438 1212.7 1438 1326C1438 1439.3 1530.7 1532 1644 1532C1757.3 1532 1850 1439.3 1850 1326C1850 1212.7 1757.3 1120 1644 1120ZM1644 1490.8C1553.36 1490.8 1479.2 1416.64 1479.2 1326C1479.2 1235.36 1553.36 1161.2 1644 1161.2C1734.64 1161.2 1808.8 1235.36 1808.8 1326C1808.8 1416.64 1734.64 1490.8 1644 1490.8Z" fill="url(#paint0_linear_45_41)"/>
<path d="M1646.06 1229.18H1644C1623.4 1229.18 1604.86 1239.48 1594.56 1255.96C1586.32 1266.26 1588.38 1278.62 1598.68 1284.8C1608.98 1290.98 1621.34 1288.92 1627.52 1278.62C1631.64 1272.44 1637.82 1270.38 1644 1270.38H1646.06C1656.36 1270.38 1664.6 1278.62 1664.6 1288.92C1664.6 1297.16 1658.42 1305.4 1652.24 1307.46L1637.82 1311.58C1629.58 1313.64 1623.4 1321.88 1623.4 1330.12V1346.6C1623.4 1358.96 1631.64 1367.2 1644 1367.2C1654.3 1367.2 1664.6 1358.96 1664.6 1348.66C1689.32 1340.42 1705.8 1317.76 1705.8 1290.98C1705.8 1258.02 1679.02 1229.18 1646.06 1229.18Z" fill="url(#paint1_linear_45_41)"/>
<path d="M1644 1429C1655.38 1429 1664.6 1419.78 1664.6 1408.4C1664.6 1397.02 1655.38 1387.8 1644 1387.8C1632.62 1387.8 1623.4 1397.02 1623.4 1408.4C1623.4 1419.78 1632.62 1429 1644 1429Z" fill="url(#paint2_linear_45_41)"/>
</g>
<defs>
<linearGradient id="paint0_linear_45_41" x1="1654.88" y1="1149.95" x2="1654.88" y2="1455.07" gradientUnits="userSpaceOnUse">
<stop stop-color="#252A34" stop-opacity="0.58"/>
<stop offset="1" stop-color="#393E4B" stop-opacity="0.21"/>
</linearGradient>
<linearGradient id="paint1_linear_45_41" x1="1654.88" y1="1149.95" x2="1654.88" y2="1455.07" gradientUnits="userSpaceOnUse">
<stop stop-color="#252A34" stop-opacity="0.58"/>
<stop offset="1" stop-color="#393E4B" stop-opacity="0.21"/>
</linearGradient>
<linearGradient id="paint2_linear_45_41" x1="1654.88" y1="1149.95" x2="1654.88" y2="1455.07" gradientUnits="userSpaceOnUse">
<stop stop-color="#252A34" stop-opacity="0.58"/>
<stop offset="1" stop-color="#393E4B" stop-opacity="0.21"/>
</linearGradient>
</defs>
</svg>
