<svg width="2000" height="2000" viewBox="0 0 2000 2000" fill="none" xmlns="http://www.w3.org/2000/svg">
<path d="M1710.16 1144C1679.18 1144 1652.63 1154.75 1630.5 1176.24L1581.82 1223.53C1572.97 1232.13 1572.97 1245.02 1581.82 1253.62C1590.67 1262.22 1603.95 1262.22 1612.8 1253.62L1661.48 1206.33C1688.03 1180.54 1732.28 1180.54 1758.83 1206.33C1772.11 1219.23 1778.75 1236.43 1778.75 1253.62C1778.75 1270.82 1772.11 1288.01 1758.83 1300.91L1710.16 1348.2C1701.3 1356.79 1701.3 1369.69 1710.16 1378.29C1714.58 1382.59 1721.22 1384.74 1725.64 1384.74C1730.07 1384.74 1736.71 1382.59 1741.13 1378.29L1789.81 1331C1811.94 1309.51 1823 1283.71 1823 1253.62C1823 1223.53 1811.94 1197.74 1789.81 1176.24C1767.68 1154.75 1741.13 1144 1710.16 1144Z" fill="#E7EAF5"/>
<path d="M1550.84 1315.95C1559.7 1307.36 1559.7 1294.46 1550.84 1285.86C1541.99 1277.26 1528.72 1277.26 1519.87 1285.86L1471.19 1331C1449.06 1352.49 1438 1378.29 1438 1408.38C1438 1438.47 1449.06 1464.26 1471.19 1485.76C1493.32 1507.25 1519.87 1518 1550.84 1518C1581.82 1518 1608.37 1507.25 1630.5 1485.76L1679.18 1438.47C1688.03 1429.87 1688.03 1416.98 1679.18 1408.38C1670.33 1399.78 1657.05 1399.78 1648.2 1408.38L1599.52 1455.67C1572.97 1481.46 1528.72 1481.46 1502.17 1455.67C1488.89 1442.77 1482.25 1425.57 1482.25 1408.38C1482.25 1391.18 1488.89 1373.99 1502.17 1361.09L1550.84 1315.95Z" fill="#E7EAF5"/>
<path d="M1581.82 1399.78C1577.4 1399.78 1570.76 1397.63 1566.33 1393.33C1557.48 1384.74 1557.48 1369.69 1566.33 1363.24L1661.48 1270.82C1670.33 1262.22 1683.6 1262.22 1692.45 1270.82C1701.3 1279.41 1701.3 1292.31 1692.45 1300.91L1597.31 1393.33C1592.88 1397.63 1586.25 1399.78 1581.82 1399.78Z" fill="#E7EAF5"/>
</svg>
