<svg width="154" height="43" viewBox="0 0 154 43" fill="none" xmlns="http://www.w3.org/2000/svg">
<g clip-path="url(#clip0_5331_13708)">
<mask id="mask0_5331_13708" style="mask-type:alpha" maskUnits="userSpaceOnUse" x="0" y="0" width="38" height="43">
<path d="M18.5087 0L0 10.6927V32.0708L18.5087 42.7563L37.003 32.0708V10.6927L18.5087 0ZM31.5234 28.9032L18.5087 36.421L5.4867 28.9032V13.8532L18.5087 6.33533L31.5234 13.8532V28.9032Z" fill="#002D74"/>
</mask>
<g mask="url(#mask0_5331_13708)">
<path d="M18.5087 0L0 10.6927V32.0708L18.5087 42.7563L37.003 32.0708V10.6927L18.5087 0ZM31.5234 28.9032L18.5087 36.421L5.4867 28.9032V13.8532L18.5087 6.33533L31.5234 13.8532V28.9032Z" fill="#002D74"/>
<rect x="-0.5" width="19" height="14" fill="url(#paint0_linear_5331_13708)"/>
<rect width="19" height="14" transform="matrix(-1 0 0 1 37.5 29)" fill="url(#paint1_linear_5331_13708)"/>
</g>
<path d="M27.1393 26.3729L18.501 31.3609L9.85547 26.3729V16.3897L18.501 11.3945L27.1393 16.3897L23.5436 18.468L18.501 15.5512L13.4584 18.468V24.2874L18.501 27.2042L23.5436 24.2874L27.1393 26.3729Z" fill="#002D74"/>
<path d="M50.6997 22.9984V22.941C50.6873 21.8082 50.9011 20.6843 51.3286 19.6353C51.7562 18.5862 52.3888 17.6332 53.1894 16.8321C53.9901 16.031 54.9426 15.398 55.9911 14.9703C57.0395 14.5425 58.1629 14.3286 59.2951 14.341C60.5365 14.2976 61.7719 14.5325 62.9109 15.0285C64.0498 15.5245 65.0635 16.2691 65.8777 17.2077L63.5068 19.7375C62.3536 18.5479 61.1359 17.6735 59.2664 17.6735C56.5231 17.6735 54.496 20.0457 54.496 22.9195V22.984C54.496 25.9152 56.5231 28.2515 59.4168 28.2515C60.2356 28.2357 61.0418 28.0468 61.7824 27.6973C62.5231 27.3477 63.1815 26.8454 63.7145 26.2234L65.9923 28.4737C64.8609 29.8263 63.3427 30.7999 61.6418 31.2635C59.9409 31.7271 58.1389 31.6586 56.4782 31.067C54.8174 30.4753 53.3775 29.3891 52.3522 27.9543C51.3268 26.5196 50.7651 24.8051 50.7427 23.0414L50.6997 22.9984Z" fill="#002D74"/>
<path d="M69.3789 14.6702H73.1823V18.3825C74.2138 15.9172 76.1119 14.233 79.0129 14.3548V18.3538H78.798C75.4888 18.3538 73.1823 20.5038 73.1823 24.8683V31.1392H69.3789V14.6702Z" fill="#002D74"/>
<path d="M80.8243 22.9982V22.9408C80.8808 20.6544 81.8256 18.4799 83.4595 16.8797C85.0926 15.2795 87.2851 14.3795 89.5707 14.3712C91.8571 14.3628 94.0561 15.2466 95.7007 16.8348C97.346 18.423 98.3072 20.5903 98.3803 22.8763V22.9408C98.381 24.0898 98.1511 25.2271 97.7048 26.2858C97.2586 27.3444 96.6046 28.3029 95.7823 29.1045C94.9593 29.9062 93.9852 30.5348 92.9158 30.9532C91.8456 31.3717 90.7039 31.5715 89.5557 31.5408C88.4175 31.5696 87.2851 31.3697 86.2257 30.953C85.1656 30.5364 84.2008 29.9113 83.3864 29.1148C82.5727 28.3184 81.9266 27.3668 81.4861 26.3162C81.0463 25.2656 80.8207 24.1373 80.8243 22.9982ZM94.6055 22.9982V22.9408C94.6341 22.2574 94.5252 21.5752 94.2853 20.9348C94.0446 20.2944 93.6779 19.709 93.2066 19.2135C92.736 18.7179 92.1694 18.3223 91.5419 18.0503C90.9152 17.7783 90.239 17.6355 89.5557 17.6303C86.5258 17.6303 84.5919 20.0025 84.5919 22.8763V22.9408C84.5661 23.6185 84.6764 24.2944 84.9157 24.9287C85.1556 25.563 85.5195 26.1429 85.9872 26.634C86.4542 27.125 87.0158 27.5173 87.6375 27.7877C88.2585 28.0582 88.9282 28.2012 89.6058 28.2083C92.6715 28.2083 94.6055 25.8362 94.6055 22.9982Z" fill="#002D74"/>
<path d="M102.186 14.6701H105.975V17.1999C106.513 16.3169 107.269 15.5885 108.172 15.086C109.075 14.5835 110.092 14.3241 111.125 14.3332C114.836 14.3332 116.985 16.8272 116.985 20.6327V31.1462H113.21V21.7794C113.21 19.2209 111.935 17.7589 109.686 17.7589C107.437 17.7589 105.975 19.2926 105.975 21.8439V31.1606H102.172L102.186 14.6701Z" fill="#002D74"/>
<path d="M120.648 22.9982V22.9408C120.705 20.6544 121.65 18.4799 123.284 16.8797C124.917 15.2795 127.109 14.3795 129.395 14.3712C131.681 14.3628 133.88 15.2466 135.525 16.8348C137.17 18.423 138.131 20.5903 138.204 22.8763V22.9408C138.205 24.0898 137.975 25.2271 137.529 26.2858C137.083 27.3444 136.429 28.3029 135.607 29.1045C134.784 29.9062 133.809 30.5348 132.74 30.9532C131.67 31.3717 130.528 31.5715 129.38 31.5408C128.242 31.5696 127.109 31.3697 126.05 30.953C124.99 30.5364 124.025 29.9113 123.211 29.1148C122.397 28.3184 121.751 27.3668 121.31 26.3162C120.871 25.2656 120.645 24.1373 120.648 22.9982ZM134.43 22.9982V22.9408C134.458 22.2574 134.349 21.5752 134.11 20.9348C133.869 20.2944 133.502 19.709 133.031 19.2135C132.56 18.7179 131.994 18.3223 131.366 18.0503C130.739 17.7783 130.063 17.6355 129.38 17.6303C126.35 17.6303 124.416 20.0025 124.416 22.8763V22.9408C124.39 23.6185 124.501 24.2944 124.74 24.9287C124.98 25.563 125.344 26.1429 125.811 26.634C126.279 27.125 126.84 27.5173 127.462 27.7877C128.083 28.0582 128.752 28.2012 129.43 28.2083C132.474 28.2083 134.43 25.8362 134.43 22.9982Z" fill="#002D74"/>
<path d="M140.699 28.9891L142.382 26.4306C143.921 27.6602 145.809 28.3703 147.776 28.4588C149.402 28.4588 150.333 27.7421 150.333 26.6815V26.617C150.333 25.3413 148.593 24.9041 146.659 24.3093C144.223 23.5926 141.509 22.6251 141.509 19.5076V19.4431C141.509 16.2898 144.102 14.3906 147.375 14.3906C149.526 14.4306 151.622 15.0791 153.42 16.2611L151.923 18.9415C150.538 18.0278 148.938 17.4917 147.282 17.3863C145.849 17.3863 144.975 18.103 144.975 19.006V19.0705C144.975 20.2888 146.752 20.7833 148.686 21.4068C151.085 22.1593 153.8 23.2486 153.8 26.2156V26.273C153.8 29.7416 151.114 31.4545 147.683 31.4545C145.145 31.4363 142.687 30.5684 140.699 28.9891Z" fill="#002D74"/>
</g>
<defs>
<linearGradient id="paint0_linear_5331_13708" x1="19" y1="3" x2="3" y2="12" gradientUnits="userSpaceOnUse">
<stop stop-color="#000E3F"/>
<stop offset="1" stop-color="#000E3F" stop-opacity="0"/>
</linearGradient>
<linearGradient id="paint1_linear_5331_13708" x1="18.5" y1="13" x2="4.5" y2="2.5" gradientUnits="userSpaceOnUse">
<stop stop-color="#000E3F"/>
<stop offset="1" stop-color="#000E3F" stop-opacity="0"/>
</linearGradient>
<clipPath id="clip0_5331_13708">
<rect width="154" height="43" fill="white"/>
</clipPath>
</defs>
</svg>
