<svg width="81" height="21" viewBox="0 0 81 21" fill="none" xmlns="http://www.w3.org/2000/svg">
<path d="M6.75216 7.78005V0.382812L0.617188 10.566L6.75216 7.78005Z" fill="#8891B1"/>
<path d="M6.75216 14.1944V7.78005L0.617188 10.566L6.75216 14.1944ZM6.75216 7.78005L12.8945 10.566L6.75216 0.382812V7.78005Z" fill="#63688E"/>
<path d="M6.75 7.7793V14.1937L12.8924 10.5653L6.75 7.7793Z" fill="#464A75"/>
<path d="M6.75216 15.3574L0.617188 11.7363L6.75216 20.3825V15.3574Z" fill="#8891B1"/>
<path d="M12.8924 11.7363L6.75 15.3574V20.3825L12.8924 11.7363Z" fill="#63688E"/>
<path d="M23.1525 11.939C23.1525 12.0794 23.0268 12.205 22.8864 12.205H17.9787C18.1044 13.3726 19.0135 14.5107 20.2995 14.5107C21.1791 14.5107 21.8295 14.1707 22.3247 13.4613C22.3764 13.3874 22.4503 13.3357 22.539 13.3357C22.6794 13.3357 22.7829 13.4391 22.7829 13.5795C22.7829 13.6313 22.7681 13.6682 22.746 13.7052C22.2508 14.5698 21.2677 14.991 20.2995 14.991C18.6439 14.991 17.4688 13.513 17.4688 11.9316C17.4688 10.3502 18.6439 8.87958 20.2995 8.87958C21.9551 8.87958 23.1525 10.3576 23.1525 11.939ZM22.6203 11.7025C22.5168 10.4536 21.5856 9.3821 20.2995 9.3821C19.0135 9.3821 18.097 10.4536 17.9787 11.7025H22.6203ZM29.117 8.96087C29.2575 8.96087 29.3609 9.0865 29.3609 9.21213C29.3609 9.35254 29.2575 9.46338 29.117 9.46338H27.8014V14.6511C27.8014 14.7767 27.6906 14.8949 27.5501 14.8949C27.4097 14.8949 27.2988 14.7693 27.2988 14.6511V9.46338H26.035C25.8945 9.46338 25.7911 9.35254 25.7911 9.21213C25.7911 9.0865 25.8945 8.96087 26.035 8.96087H27.2988V7.08385C27.2988 6.94344 27.4097 6.83998 27.5501 6.83998C27.6906 6.83998 27.8014 6.94344 27.8014 7.08385V8.96087H29.117ZM37.1142 11.4808V14.6141C37.1142 14.7545 37.0329 14.858 36.9072 14.858C36.7668 14.858 36.7003 14.7545 36.7003 14.6141V11.4808C36.7003 10.4241 36.0868 9.36732 34.9042 9.36732C33.3891 9.36732 32.7165 10.6901 32.7978 12.0424C32.7978 12.0794 32.7904 12.2346 32.7904 12.2568V14.6141C32.7904 14.7545 32.7239 14.858 32.5834 14.858C32.443 14.858 32.3765 14.7545 32.3765 14.6141V4.32004C32.3765 4.19441 32.443 4.07617 32.5834 4.07617C32.7239 4.07617 32.7904 4.2018 32.7904 4.32004V10.1433C33.293 9.38949 33.9656 8.87958 34.8451 8.87958C36.2864 8.87958 37.1142 10.1433 37.1142 11.4808ZM45.9686 11.939C45.9686 12.0794 45.843 12.205 45.7026 12.205H40.7949C40.9205 13.3726 41.8296 14.5107 43.1157 14.5107C43.9952 14.5107 44.6456 14.1707 45.1408 13.4613C45.1926 13.3874 45.2665 13.3357 45.3552 13.3357C45.4956 13.3357 45.5991 13.4391 45.5991 13.5795C45.5991 13.6313 45.5843 13.6682 45.5621 13.7052C45.0669 14.5698 44.0839 14.991 43.1157 14.991C41.4601 14.991 40.2849 13.513 40.2849 11.9316C40.2849 10.3502 41.4601 8.87958 43.1157 8.87958C44.7713 8.87958 45.9686 10.3576 45.9686 11.939ZM45.4439 11.7025C45.3404 10.4536 44.4091 9.3821 43.1231 9.3821C41.837 9.3821 40.9205 10.4536 40.8023 11.7025H45.4439ZM52.0071 9.21213C52.0071 9.36732 51.9184 9.45599 51.7706 9.47816C50.3294 9.69247 49.6716 10.8675 49.6716 12.242V14.592C49.6716 14.7324 49.5607 14.8358 49.4203 14.8358C49.2798 14.8358 49.169 14.7324 49.169 14.592V9.22691C49.169 9.0865 49.2798 8.98304 49.4203 8.98304C49.5607 8.98304 49.6716 9.0865 49.6716 9.22691V10.3206C50.0854 9.63335 50.8911 8.98304 51.7337 8.98304C51.8593 8.98304 52.0071 9.07172 52.0071 9.21213ZM60.0781 11.939C60.0781 12.0794 59.9525 12.205 59.8121 12.205H54.9044C55.0301 13.3726 55.9392 14.5107 57.2252 14.5107C58.1047 14.5107 58.7551 14.1707 59.2503 13.4613C59.3021 13.3874 59.376 13.3357 59.4647 13.3357C59.6051 13.3357 59.7086 13.4391 59.7086 13.5795C59.7086 13.6313 59.6938 13.6682 59.6716 13.7052C59.1764 14.5698 58.1934 14.991 57.2252 14.991C55.5696 14.991 54.3944 13.513 54.3944 11.9316C54.3944 10.3502 55.5696 8.87958 57.2252 8.87958C58.8808 8.87219 60.0781 10.3576 60.0781 11.939ZM59.5534 11.7025C59.4499 10.4536 58.5186 9.3821 57.2326 9.3821C55.9466 9.3821 55.0301 10.4536 54.9118 11.7025H59.5534ZM68.0531 9.26386V14.6437C68.0531 14.7841 67.9274 14.8875 67.8018 14.8875C67.6614 14.8875 67.5505 14.7841 67.5505 14.6437V13.6313C67.1366 14.4368 66.4197 15.0206 65.5032 15.0206C64.0398 15.0206 63.2267 13.7569 63.2267 12.4193V9.27125C63.2267 9.14562 63.3376 9.02738 63.478 9.02738C63.6185 9.02738 63.7293 9.15301 63.7293 9.27125V12.4193C63.7293 13.4761 64.328 14.5328 65.5106 14.5328C67.1662 14.5328 67.5579 12.9883 67.5579 11.2813V9.27864C67.5579 9.15301 67.6688 9.03477 67.8092 9.03477C67.9274 9.01999 68.0531 9.14562 68.0531 9.26386ZM80.4405 11.466V14.6141C80.4405 14.7545 80.3148 14.858 80.1892 14.858C80.0488 14.858 79.9379 14.7545 79.9379 14.6141V11.466C79.9379 10.4093 79.3392 9.3747 78.1567 9.3747C76.6784 9.3747 76.1093 10.9561 76.1093 12.1902V14.6141C76.1093 14.7545 75.9837 14.858 75.858 14.858C75.7176 14.858 75.6067 14.7545 75.6067 14.6141V11.466C75.6067 10.4093 75.0228 9.3747 73.8477 9.3747C72.3547 9.3747 71.7338 10.5497 71.7856 12.1163V14.6141C71.7856 14.7545 71.6747 14.858 71.5343 14.858C71.3938 14.858 71.283 14.7545 71.283 14.6141V9.2343C71.283 9.09389 71.3938 8.99043 71.5343 8.99043C71.6747 8.99043 71.7856 9.09389 71.7856 9.2343V10.1285C72.1995 9.3747 72.9755 8.87958 73.8551 8.87958C74.8602 8.87958 75.6363 9.51511 75.9541 10.4462C76.3606 9.52989 77.1515 8.87958 78.1714 8.87958C79.6201 8.87958 80.4405 10.1285 80.4405 11.466Z" fill="#8891B1"/>
</svg>
