<svg width="270" height="70" viewBox="0 0 270 70" fill="none" xmlns="http://www.w3.org/2000/svg">
<g clip-path="url(#clip0_5324_13479)">
<path d="M24.6207 0.670545C26.3245 -0.223515 28.9169 -0.223515 30.6207 0.670545L48.0064 9.7936C49.0325 10.3321 49.5961 11.1344 49.6971 11.9627H49.7136V57.82C49.6911 58.7234 49.1222 59.6209 48.0064 60.2066L30.6207 69.3295C28.9169 70.2237 26.3245 70.2237 24.6207 69.3295L7.23501 60.2066C6.12391 59.6236 5.5907 58.7196 5.5643 57.82C5.56167 57.7314 5.56134 57.6576 5.56386 57.5963L5.56375 12.2573C5.562 12.2076 5.56184 12.158 5.56326 12.1086L5.5643 11.9627L5.57208 11.9627C5.6493 11.1253 6.18727 10.3434 7.23501 9.7936L24.6207 0.670545ZM46.9767 37.5462L30.6207 46.129C28.9169 47.0231 26.3245 47.0231 24.6207 46.129L8.30045 37.5654V57.7292L24.6207 66.2479C25.5422 66.7373 26.4987 67.2142 27.434 67.2749L27.6207 67.2809C28.5953 67.2842 29.5415 66.7926 30.5009 66.3272L46.9767 57.6559V37.5462ZM2.73653 56.823C2.73653 58.5796 2.94206 59.7346 3.35015 60.5484C3.68839 61.2227 4.19589 61.7378 5.12256 62.3651L5.17546 62.4006C5.37882 62.5368 5.60286 62.6795 5.87554 62.8469L6.19713 63.0427L7.18463 63.6349L5.76831 65.9613L4.66303 65.298L4.47725 65.1848C4.15767 64.9884 3.89279 64.8205 3.64573 64.6548C1.0047 62.8857 0.0197293 60.9574 0.000294117 56.945L0 56.823H2.73653ZM26.252 25.2551C26.1255 25.2983 26.0069 25.3483 25.8987 25.405L8.51305 34.5281C8.49481 34.5377 8.4774 34.5471 8.46086 34.5565L8.44613 34.565L8.4734 34.5805L8.51305 34.6019L25.8987 43.725C26.0069 43.7817 26.1255 43.8316 26.252 43.8749V25.2551ZM28.9894 25.2551V43.8749C29.116 43.8316 29.2346 43.7817 29.3427 43.725L46.7284 34.6019C46.7466 34.5923 46.7641 34.5828 46.7806 34.5735L46.7953 34.565L46.768 34.5495L46.7284 34.5281L29.3427 25.405C29.2346 25.3483 29.116 25.2983 28.9894 25.2551ZM46.9767 15.2157L31.3808 23.3997L46.9767 31.5837V15.2157ZM8.30045 15.2348V31.5645L23.8602 23.3997L8.30045 15.2348ZM29.3427 3.07462C28.4386 2.60019 26.8028 2.60019 25.8987 3.07462L8.51305 12.1977C8.49481 12.2073 8.4774 12.2168 8.46086 12.2261L8.44613 12.2346L8.4734 12.2501L8.51305 12.2715L25.8987 21.3946C26.8028 21.869 28.4386 21.869 29.3427 21.3946L46.7284 12.2715C46.7466 12.2619 46.7641 12.2525 46.7806 12.2431L46.7953 12.2346L46.768 12.219L46.7284 12.1977L29.3427 3.07462ZM49.5461 4.07506L50.6514 4.73826L50.8372 4.85157C51.1567 5.04756 51.4216 5.21593 51.6687 5.38142C54.3097 7.15039 55.2947 9.07906 55.3139 13.0911L55.3144 13.2134H52.5779C52.5779 11.4564 52.3723 10.3016 51.9643 9.48801C51.626 8.81371 51.1185 8.29839 50.1918 7.67134L50.1389 7.63574C49.9356 7.49952 49.7115 7.35684 49.4389 7.18911L49.1173 6.99344L48.1298 6.40139L49.5461 4.07506Z" fill="#0516FF"/>
<path d="M83.1126 55.9081V30.3343H90.2147V25.6519H83.1126V22.2901C83.1126 18.4881 84.778 16.5871 88.1084 16.5871C89.0712 16.5871 90.0948 16.7472 91.178 17.0673V12.0847C89.8538 11.6845 88.3893 11.4844 86.7841 11.4844C83.6947 11.4844 81.297 12.3648 79.5916 14.1258C77.8862 15.8867 77.0334 18.4481 77.0334 21.8099V25.6519H71.1953V30.3343H77.0334V55.9081H83.1126ZM107.79 56.3281C110.117 56.3281 112.154 55.848 113.899 54.8871C115.645 53.9269 116.959 52.5461 117.842 50.7452V55.9081H123.861V25.6519H117.842V30.5745C116.918 28.7736 115.595 27.3828 113.869 26.4023C112.144 25.4218 110.117 24.9315 107.79 24.9315C105.182 24.9315 102.854 25.5918 100.808 26.9125C98.7616 28.2332 97.1668 30.0943 96.0233 32.4955C94.8797 34.8967 94.308 37.6583 94.308 40.7799C94.308 43.9015 94.8693 46.633 95.9931 48.9742C97.1164 51.3155 98.6915 53.1264 100.718 54.4071C102.744 55.6877 105.101 56.3281 107.79 56.3281ZM109.235 51.5256C106.466 51.5256 104.309 50.5851 102.765 48.7041C101.22 46.8231 100.447 44.1817 100.447 40.7799C100.447 37.3381 101.22 34.6467 102.765 32.7056C104.309 30.7646 106.446 29.7941 109.174 29.7941C111.943 29.7941 114.08 30.7346 115.584 32.6156C117.089 34.4965 117.842 37.178 117.842 40.6598C117.842 44.1016 117.089 46.7731 115.584 48.6741C114.08 50.5751 111.963 51.5256 109.235 51.5256ZM138.787 55.9081V38.6788C138.787 35.9973 139.56 33.8562 141.104 32.2554C142.649 30.6545 144.706 29.8541 147.274 29.8541C149.521 29.8541 151.156 30.4544 152.179 31.655C153.202 32.8557 153.714 34.7767 153.714 37.4181V55.9081H159.793V37.0579C159.793 28.9737 156.162 24.9315 148.899 24.9315C146.572 24.9315 144.495 25.4418 142.669 26.4623C140.844 27.4828 139.449 28.9536 138.486 30.8746L137.944 25.6519H132.287C132.608 28.1732 132.768 31.0147 132.768 34.1764V55.9081H138.787ZM180.137 56.3281C181.822 56.3281 183.327 56.1083 184.651 55.668V50.7452C183.567 51.0653 182.504 51.2254 181.461 51.2254C179.856 51.2254 178.602 50.7952 177.699 49.9347C176.797 49.0743 176.345 47.6035 176.345 45.5224V30.3343H184.711V25.6519H176.345V15.9867L170.266 18.0879V25.6519H164.367V30.3343H170.266V46.0026C170.266 49.3644 171.129 51.9258 172.854 53.6867C174.58 55.4477 177.007 56.3281 180.137 56.3281ZM203.37 56.3281C206.299 56.3281 208.887 55.6877 211.134 54.4071C213.381 53.1264 215.116 51.3055 216.34 48.9442C217.564 46.583 218.176 43.8215 218.176 40.6598C218.176 37.4981 217.564 34.7267 216.34 32.3454C215.116 29.9642 213.381 28.1332 211.134 26.8525C208.887 25.5718 206.299 24.9315 203.37 24.9315C200.4 24.9315 197.792 25.5718 195.545 26.8525C193.298 28.1332 191.563 29.9642 190.339 32.3454C189.115 34.7267 188.503 37.4981 188.503 40.6598C188.503 43.8215 189.115 46.583 190.339 48.9442C191.563 51.3055 193.298 53.1264 195.545 54.4071C197.792 55.6877 200.4 56.3281 203.37 56.3281ZM203.31 51.5256C200.541 51.5256 198.404 50.6051 196.899 48.7641C195.395 46.9231 194.642 44.2217 194.642 40.6598C194.642 37.178 195.405 34.4965 196.929 32.6156C198.454 30.7346 200.601 29.7941 203.37 29.7941C206.098 29.7941 208.215 30.7346 209.72 32.6156C211.225 34.4965 211.976 37.178 211.976 40.6598C211.976 44.2217 211.234 46.9231 209.75 48.7641C208.265 50.6051 206.118 51.5256 203.31 51.5256ZM231.297 55.9081V38.7988C231.297 36.0374 231.979 33.8562 233.344 32.2554C234.708 30.6545 236.554 29.8541 238.881 29.8541C240.887 29.8541 242.342 30.4544 243.244 31.655C244.148 32.8557 244.599 34.7567 244.599 37.3581V55.9081H250.678V38.7988C250.678 36.0374 251.35 33.8562 252.694 32.2554C254.038 30.6545 255.874 29.8541 258.202 29.8541C260.208 29.8541 261.663 30.4544 262.565 31.655C263.468 32.8557 263.919 34.7567 263.919 37.3581V55.9081H269.999V37.0579C269.999 28.9737 266.628 24.9315 259.887 24.9315C257.64 24.9315 255.623 25.4518 253.838 26.4923C252.052 27.5329 250.698 28.9536 249.775 30.7546C248.331 26.8725 245.261 24.9315 240.566 24.9315C238.359 24.9315 236.433 25.4318 234.788 26.4323C233.143 27.4328 231.879 28.8536 230.996 30.6946L230.455 25.6519H224.797C225.118 28.1732 225.278 31.0147 225.278 34.1764V55.9081H231.297Z" fill="#0516FF"/>
</g>
<defs>
<clipPath id="clip0_5324_13479">
<rect width="270" height="70" fill="white"/>
</clipPath>
</defs>
</svg>
