<svg width="197" height="191" viewBox="0 0 197 191" fill="none" xmlns="http://www.w3.org/2000/svg">
<mask id="mask0_7_20597" style="mask-type:alpha" maskUnits="userSpaceOnUse" x="14" y="0" width="179" height="191">
<ellipse cx="103.876" cy="95.161" rx="89.0435" ry="95.161" fill="#EA7B19"/>
</mask>
<g mask="url(#mask0_7_20597)">
<ellipse cx="103.876" cy="95.161" rx="89.0435" ry="95.161" fill="#3B8107"/>
</g>
<mask id="mask1_7_20597" style="mask-type:alpha" maskUnits="userSpaceOnUse" x="0" y="0" width="186" height="191">
<path d="M185.306 95.161C185.306 147.717 143.824 190.322 92.6529 190.322C41.4821 190.322 0 147.717 0 95.161C0 42.605 41.4821 0 92.6529 0C143.824 0 185.306 42.605 185.306 95.161Z" fill="#C4C4C4"/>
</mask>
<g mask="url(#mask1_7_20597)">
<path d="M185.306 95.161C185.306 147.717 143.824 190.322 92.6529 190.322C41.4821 190.322 0 147.717 0 95.161C0 42.605 41.4821 0 92.6529 0C143.824 0 185.306 42.605 185.306 95.161Z" fill="#539A22"/>
</g>
<mask id="mask2_7_20597" style="mask-type:alpha" maskUnits="userSpaceOnUse" x="20" y="20" width="145" height="150">
<path d="M164.493 95.1623C164.493 136.456 132.234 169.932 92.4421 169.932C52.6497 169.932 20.3916 136.456 20.3916 95.1623C20.3916 53.8683 52.6497 20.3929 92.4421 20.3929C132.234 20.3929 164.493 53.8683 164.493 95.1623Z" fill="#C4C4C4"/>
</mask>
<g mask="url(#mask2_7_20597)">
<ellipse cx="92.4423" cy="95.1632" rx="74.9325" ry="77.7601" fill="#3B8107"/>
<ellipse cx="97.4857" cy="94.4145" rx="71.33" ry="74.0217" fill="#6BBB34"/>
</g>
<path d="M87.5008 145.802C86.7507 145.802 86.0756 145.541 85.4755 145.017C84.9505 144.494 84.6879 143.821 84.6879 142.999V135.15C79.0621 134.478 74.2615 133.095 70.2859 131.002C66.3853 128.834 63.4224 126.181 61.3971 123.041C59.4469 119.902 58.3967 116.575 58.2467 113.062C58.2467 112.389 58.4717 111.829 58.9218 111.38C59.4469 110.932 60.047 110.707 60.722 110.707H75.6867C76.6618 110.707 77.4119 110.857 77.937 111.156C78.462 111.455 79.0621 111.978 79.7372 112.726C82.0626 116.837 86.3382 118.893 92.564 118.893C96.6146 118.893 99.7275 118.295 101.903 117.099C104.153 115.828 105.278 114.109 105.278 111.941C105.278 110.371 104.678 109.1 103.478 108.129C102.353 107.082 100.553 106.185 98.0773 105.438C95.677 104.615 92.114 103.718 87.3883 102.747C78.312 100.953 71.5236 98.2244 67.0229 94.5616C62.5223 90.8989 60.272 85.6665 60.272 78.8643C60.272 72.8096 62.4473 67.6893 66.7979 63.5033C71.1485 59.2426 77.1119 56.589 84.6879 55.5425V47.6939C84.6879 46.8716 84.9505 46.1989 85.4755 45.6756C86.0756 45.1524 86.7507 44.8908 87.5008 44.8908H97.2897C98.1148 44.8908 98.7899 45.1524 99.315 45.6756C99.8401 46.1989 100.103 46.8716 100.103 47.6939V55.7668C105.053 56.6638 109.329 58.2709 112.929 60.5881C116.53 62.8306 119.268 65.4468 121.143 68.4368C123.093 71.352 124.143 74.1925 124.293 76.9582C124.293 77.6309 124.068 78.2289 123.618 78.7522C123.168 79.2007 122.606 79.4249 121.931 79.4249H106.178C104.453 79.4249 103.178 78.7522 102.353 77.4067C101.903 75.837 100.703 74.5289 98.7524 73.4824C96.8771 72.3611 94.5893 71.8005 91.8889 71.8005C88.7385 71.8005 86.3006 72.3611 84.5754 73.4824C82.8502 74.6036 81.9875 76.2481 81.9875 78.4158C81.9875 80.5835 83.1127 82.3028 85.363 83.5735C87.6133 84.7695 91.7764 86.0029 97.8523 87.2736C104.903 88.5443 110.529 90.1514 114.73 92.0949C118.93 93.9637 122.006 96.4304 123.956 99.4951C125.906 102.485 126.881 106.297 126.881 110.932C126.881 117.51 124.444 122.929 119.568 127.19C114.767 131.45 108.279 134.104 100.103 135.15V142.999C100.103 143.821 99.8401 144.494 99.315 145.017C98.7899 145.541 98.1148 145.802 97.2897 145.802H87.5008Z" fill="#A6F172"/>
<circle cx="153.593" cy="146.915" r="43.4068" fill="#E9E9F0"/>
<circle cx="149.512" cy="146.915" r="43.4068" fill="white"/>
<path d="M130.146 154.382C130.146 156.264 130.684 158.416 132.298 159.761L137.408 164.872C138.753 166.216 140.636 167.023 142.519 167.023C142.519 167.023 142.519 167.023 142.788 167.023L146.553 174.017C147.091 174.824 147.629 175.362 148.436 175.362H148.705C149.512 175.362 150.05 175.093 150.588 174.555L160.809 164.334C161.347 163.796 161.616 163.258 161.616 162.72L162.154 154.651C162.423 154.382 162.423 154.382 162.692 154.113C164.575 152.23 166.457 150.078 168.071 147.926C171.03 144.161 172.644 139.588 172.913 135.284L173.182 132.864C173.451 130.174 172.644 128.022 170.761 126.139C169.147 124.526 166.726 123.719 164.037 123.719L161.616 123.988C157.581 124.526 153.009 126.139 149.243 129.098C146.822 130.712 144.671 132.864 142.519 135.015L134.45 135.553C133.912 135.553 133.374 135.822 132.836 136.36L122.615 146.581C122.077 147.119 121.808 147.926 121.808 148.733C121.808 149.54 122.346 150.347 123.153 150.616L130.146 154.382ZM156.236 161.106L149.512 168.099L147.898 165.141L151.933 162.72C153.547 161.913 154.892 160.837 156.505 159.761C156.505 159.761 156.505 159.761 156.774 159.761L156.236 161.106ZM152.471 133.402C155.43 131.25 158.926 129.905 162.423 129.636L164.844 129.367H165.113C165.92 129.367 166.726 129.636 167.264 130.174C167.802 130.712 168.071 131.519 168.071 132.595L167.802 135.015C167.533 138.512 166.189 141.74 164.037 144.968C162.423 147.119 160.809 149.002 159.195 150.616C158.926 150.885 158.388 151.423 158.119 151.692C155.43 154.382 152.471 156.533 149.243 158.416L144.133 161.106C143.864 161.375 143.595 161.375 143.326 161.375C142.519 161.644 141.712 161.375 141.174 161.106L136.063 155.995C135.526 155.457 135.526 154.651 135.794 153.844C135.794 153.844 135.794 153.575 136.063 153.037L139.022 148.195C140.905 144.968 143.057 142.009 145.747 139.319C147.629 137.167 150.05 135.284 152.471 133.402ZM136.063 140.933H137.677C137.677 140.933 137.677 141.202 137.408 141.202C136.332 142.547 135.257 144.161 134.45 145.774L132.029 149.54L129.07 147.657L136.063 140.933Z" fill="black"/>
<path d="M157.581 144.968C160.552 144.968 162.961 142.559 162.961 139.588C162.961 136.617 160.552 134.209 157.581 134.209C154.61 134.209 152.202 136.617 152.202 139.588C152.202 142.559 154.61 144.968 157.581 144.968Z" fill="black"/>
</svg>
