<svg width="33" height="32" viewBox="0 0 33 32" fill="none" xmlns="http://www.w3.org/2000/svg">
<path d="M21.8333 4H23.1667C26.1 4 28.5 6.4 28.5 9.33333V10.8C28.5 11.6 27.9667 12.1333 27.1667 12.1333C26.3667 12.1333 25.8333 11.6 25.8333 10.8V9.33333C25.8333 7.86667 24.6333 6.66667 23.1667 6.66667H21.8333C21.0333 6.66667 20.5 6.13333 20.5 5.33333C20.5 4.53333 21.0333 4 21.8333 4Z" fill="#6BBB34"/>
<path d="M25.8333 21.3333C25.8333 20.5333 26.3667 20 27.1667 20C27.9667 20 28.5 20.5333 28.5 21.3333V22.6667C28.5 25.6 26.1 28 23.1667 28H21.8333C21.0333 28 20.5 27.4667 20.5 26.6667C20.5 25.8667 21.0333 25.3333 21.8333 25.3333H23.1667C24.6333 25.3333 25.8333 24.1333 25.8333 22.6667V21.3333Z" fill="#6BBB34"/>
<path d="M11.1667 25.3333H9.83333C8.36667 25.3333 7.16667 24.1333 7.16667 22.6667V21.3333C7.16667 20.5333 6.63333 20 5.83333 20C5.03333 20 4.5 20.5333 4.5 21.3333V22.6667C4.5 25.6 6.9 28 9.83333 28H11.1667C11.9667 28 12.5 27.4667 12.5 26.6667C12.5 25.8667 11.9667 25.3333 11.1667 25.3333Z" fill="#6BBB34"/>
<path d="M7.16667 10.6667C7.16667 11.4667 6.63333 12 5.83333 12C5.03333 12 4.5 11.3333 4.5 10.6667V9.33333C4.5 6.4 6.9 4 9.83333 4H11.1667C11.9667 4 12.5 4.53333 12.5 5.33333C12.5 6.13333 11.9667 6.66667 11.1667 6.66667H9.83333C8.36667 6.66667 7.16667 7.86667 7.16667 9.33333V10.6667Z" fill="#6BBB34"/>
<path fill-rule="evenodd" clip-rule="evenodd" d="M16.5 10.6667C16.5 9.2 15.3 8 13.8333 8H11.1667C9.7 8 8.5 9.2 8.5 10.6667V13.3333C8.5 14.8 9.7 16 11.1667 16H13.8333C15.3 16 16.5 14.8 16.5 13.3333V10.6667ZM11.1667 13.3333V10.6667H13.8333V13.3333H11.1667Z" fill="#6BBB34"/>
<path fill-rule="evenodd" clip-rule="evenodd" d="M21.8333 16C23.3 16 24.5 17.2 24.5 18.6667V21.3333C24.5 22.8 23.3 24 21.8333 24H19.1667C17.7 24 16.5 22.8 16.5 21.3333V18.6667C16.5 17.2 17.7 16 19.1667 16H21.8333ZM21.8333 18.6667H19.1667V21.3333H21.8333V18.6667Z" fill="#6BBB34"/>
<path d="M19.1667 14.6667H20.5C21.3 14.6667 21.8333 14.1333 21.8333 13.3333V10.6667H23.1667C23.9667 10.6667 24.5 10.1333 24.5 9.33333C24.5 8.53333 23.9667 8 23.1667 8H20.5C19.7 8 19.1667 8.53333 19.1667 9.33333V12C18.3667 12 17.8333 12.5333 17.8333 13.3333C17.8333 14.1333 18.3667 14.6667 19.1667 14.6667Z" fill="#6BBB34"/>
<path d="M9.83333 17.3333H13.8333C14.6333 17.3333 15.1667 17.8667 15.1667 18.6667V22.6667C15.1667 23.4667 14.6333 24 13.8333 24C13.0333 24 12.5 23.4667 12.5 22.6667V20H9.83333C9.03333 20 8.5 19.4667 8.5 18.6667C8.5 17.8667 9.03333 17.3333 9.83333 17.3333Z" fill="#6BBB34"/>
</svg>
