<svg width="16" height="16" viewBox="0 0 16 16" fill="none" xmlns="http://www.w3.org/2000/svg">
<path d="M14.356 4.99262C15.0067 4.56615 15.554 4.03385 16 3.42092V3.42031C15.4047 3.66092 14.7713 3.82092 14.11 3.89846C14.79 3.52369 15.3093 2.93477 15.5533 2.22523C14.9193 2.57415 14.2193 2.82031 13.4733 2.95815C12.8713 2.36615 12.0133 2 11.0773 2C9.26133 2 7.79933 3.36062 7.79933 5.02831C7.79933 5.26831 7.82133 5.49908 7.87533 5.71877C5.14867 5.59569 2.73533 4.38954 1.114 2.55138C0.831333 3.00492 0.664667 3.52369 0.664667 4.08185C0.664667 5.13046 1.24933 6.05969 2.122 6.59815C1.59467 6.58892 1.078 6.44738 0.64 6.22523V6.25846C0.64 7.72985 1.77667 8.952 3.268 9.23385C3.00067 9.30154 2.71 9.33354 2.408 9.33354C2.198 9.33354 1.986 9.32246 1.78733 9.28185C2.212 10.4806 3.41867 11.3625 4.852 11.3914C3.736 12.1969 2.31867 12.6825 0.784667 12.6825C0.516 12.6825 0.258 12.6714 0 12.6412C1.45333 13.5058 3.17467 14 5.032 14C10.8207 14 14.5933 9.54215 14.356 4.99262V4.99262Z" fill="#9DA5B5"/>
</svg>
