<svg width="48" height="48" viewBox="0 0 48 48" fill="none" xmlns="http://www.w3.org/2000/svg">
<path d="M39.5695 15.239L24.1476 24M24.1476 24L8.43044 15.239M24.1476 24L24 41.5219M39.75 32.0882V15.9117C39.7487 15.678 39.6859 15.4488 39.5678 15.2472C39.4497 15.0456 39.2805 14.8786 39.0773 14.7632L24.6398 6.64215C24.4453 6.52983 24.2246 6.4707 24 6.4707C23.7754 6.4707 23.5547 6.52983 23.3602 6.64215L8.92266 14.7632C8.71947 14.8786 8.55029 15.0456 8.4322 15.2472C8.3141 15.4488 8.25125 15.678 8.25 15.9117V32.0882C8.25125 32.3219 8.3141 32.5511 8.4322 32.7527C8.55029 32.9544 8.71947 33.1213 8.92266 33.2367L23.3602 41.3578C23.5547 41.4701 23.7754 41.5292 24 41.5292C24.2246 41.5292 24.4453 41.4701 24.6398 41.3578L39.0773 33.2367C39.2805 33.1213 39.4497 32.9544 39.5678 32.7527C39.6859 32.5511 39.7487 32.3219 39.75 32.0882Z" stroke="#151C24" stroke-width="4" stroke-linecap="round" stroke-linejoin="round"/>
</svg>
