<svg width="31" height="32" viewBox="0 0 31 32" fill="none" xmlns="http://www.w3.org/2000/svg">
<path d="M26.3333 8.53333C25.4 7.33333 24.0667 6.66667 22.6 6.66667H7.26666L7 5.06667C6.86666 4.53333 6.33333 4 5.66666 4H3C2.2 4 1.66666 4.53333 1.66666 5.33333C1.66666 6.13333 2.2 6.66667 3 6.66667H4.6L4.86666 8.26667L6.46666 17.6L6.73333 19.2C7 21.2 8.73333 22.6667 10.7333 22.6667H23.5333C24.3333 22.6667 24.8667 22.1333 24.8667 21.3333C24.8667 20.5333 24.3333 20 23.5333 20H10.7333C10.0667 20 9.4 19.4667 9.26666 18.8V18.6667H21.8C23.9333 18.6667 25.6667 17.3333 26.3333 15.3333L27.1333 12.6667C27.5333 11.2 27.1333 9.73333 26.3333 8.53333ZM24.4667 11.8667L23.6667 14.5333C23.4 15.3333 22.6 16 21.8 16H8.73333L7.66666 9.33333H22.6C23.2667 9.33333 23.8 9.6 24.2 10.1333C24.6 10.6667 24.7333 11.3333 24.4667 11.8667Z" fill="#6BBB34"/>
<path d="M10.3333 28C11.4379 28 12.3333 27.1046 12.3333 26C12.3333 24.8954 11.4379 24 10.3333 24C9.22876 24 8.33333 24.8954 8.33333 26C8.33333 27.1046 9.22876 28 10.3333 28Z" fill="#6BBB34"/>
<path d="M21 28C22.1046 28 23 27.1046 23 26C23 24.8954 22.1046 24 21 24C19.8954 24 19 24.8954 19 26C19 27.1046 19.8954 28 21 28Z" fill="#6BBB34"/>
</svg>
