<svg width="48" height="48" viewBox="0 0 48 48" fill="none" xmlns="http://www.w3.org/2000/svg">
<path d="M32.641 17.7527C27.6022 17.7527 22.495 15.8717 22.495 12.2921C22.495 8.71251 27.6022 6.83151 32.641 6.83151C37.6798 6.83151 42.787 8.71251 42.787 12.2921C42.787 15.8717 37.6798 17.7527 32.641 17.7527ZM32.641 9.95511C28.081 9.95511 25.6186 11.6195 25.6186 12.2921C25.6186 12.9761 28.081 14.6291 32.641 14.6291C37.201 14.6291 39.6634 12.9647 39.6634 12.2921C39.6634 11.6081 37.201 9.95511 32.641 9.95511Z" fill="#151C24"/>
<path d="M32.641 24C27.6022 24 22.495 22.119 22.495 18.5394V12.2922H25.6186V18.5394C25.6186 19.2234 28.081 20.8764 32.641 20.8764C37.201 20.8764 39.6634 19.212 39.6634 18.5394V12.2922H42.787V18.5394C42.787 22.119 37.6798 24 32.641 24Z" fill="#151C24"/>
<path d="M32.641 30.2357C27.6022 30.2357 22.495 28.3547 22.495 24.7751V18.5279H25.6186V24.7751C25.6186 25.4591 28.081 27.1121 32.641 27.1121C37.201 27.1121 39.6634 25.4477 39.6634 24.7751V18.5279H42.787V24.7751C42.787 28.3661 37.6798 30.2357 32.641 30.2357Z" fill="#151C24"/>
<path d="M32.641 36.4828C27.6022 36.4828 22.495 34.6018 22.495 31.0222V24.775H25.6186V31.0222C25.6186 31.7062 28.081 33.3592 32.641 33.3592C37.201 33.3592 39.6634 31.6948 39.6634 31.0222V24.775H42.787V31.0222C42.787 34.6018 37.6798 36.4828 32.641 36.4828Z" fill="#151C24"/>
<path d="M15.4724 28.6739C10.4336 28.6739 5.32642 26.7929 5.32642 23.2133C5.32642 19.6337 10.4336 17.7527 15.4724 17.7527C20.5112 17.7527 25.6184 19.6337 25.6184 23.2133C25.6184 26.7929 20.5112 28.6739 15.4724 28.6739ZM15.4724 20.8763C10.9124 20.8763 8.45002 22.5407 8.45002 23.2133C8.45002 23.8973 10.9124 25.5503 15.4724 25.5503C20.0324 25.5503 22.4948 23.8859 22.4948 23.2133C22.4948 22.5407 20.0324 20.8763 15.4724 20.8763Z" fill="#151C24"/>
<path d="M15.4724 34.9212C10.4336 34.9212 5.32642 33.0402 5.32642 29.4606V23.2134H8.45002V29.4606C8.45002 30.1446 10.9124 31.7976 15.4724 31.7976C20.0324 31.7976 22.4948 30.1332 22.4948 29.4606V23.2134H25.6184V29.4606C25.6184 33.0402 20.5112 34.9212 15.4724 34.9212Z" fill="#151C24"/>
<path d="M15.4724 41.1569C10.4336 41.1569 5.32642 39.2759 5.32642 35.6963V29.4491H8.45002V35.6963C8.45002 36.3803 10.9124 38.0333 15.4724 38.0333C20.0324 38.0333 22.4948 36.3689 22.4948 35.6963V29.4491H25.6184V35.6963C25.6184 39.2873 20.5112 41.1569 15.4724 41.1569Z" fill="#151C24"/>
</svg>
