<svg width="16" height="16" viewBox="0 0 16 16" fill="none" xmlns="http://www.w3.org/2000/svg">
<path d="M7.99963 13.9984C11.3133 13.9984 13.9996 11.3121 13.9996 7.99841C13.9996 4.6847 11.3133 1.99841 7.99963 1.99841C4.68593 1.99841 1.99963 4.6847 1.99963 7.99841C1.99963 11.3121 4.68593 13.9984 7.99963 13.9984Z" stroke="#9DA5B5" stroke-width="1.23077" stroke-miterlimit="10"/>
<path d="M2.34192 5.99988H13.6585" stroke="#9DA5B5" stroke-width="1.23077" stroke-linecap="round" stroke-linejoin="round"/>
<path d="M2.34192 9.99817H13.6584" stroke="#9DA5B5" stroke-width="1.23077" stroke-linecap="round" stroke-linejoin="round"/>
<path d="M8.00085 13.838C9.38157 13.838 10.5009 11.2238 10.5009 7.99909C10.5009 4.77434 9.38157 2.16016 8.00085 2.16016C6.62014 2.16016 5.50085 4.77434 5.50085 7.99909C5.50085 11.2238 6.62014 13.838 8.00085 13.838Z" stroke="#9DA5B5" stroke-width="1.23077" stroke-miterlimit="10"/>
</svg>
