<svg width="48" height="48" viewBox="0 0 48 48" fill="none" xmlns="http://www.w3.org/2000/svg">
<path d="M8.70927 4L-4.8409e-09 22.2068L24 44.6842L48 22.2068L39.2908 4H24H8.70927Z" fill="white"/>
<path d="M8.70927 4L-4.8409e-09 22.2068L24 44.6842L48 22.2068L39.2908 4H24H8.70927ZM12.6745 9.519H35.3508L35.3508 14.8826H27.0231L27.0231 18.4028L27.0251 18.4038C33.7815 18.7053 38.8607 20.0001 38.8607 21.5511C38.8607 23.102 33.7815 24.3969 27.0251 24.6983L27.0251 35.9751H21.003L21.003 24.6993C14.2367 24.3969 9.14491 23.101 9.14491 21.5487C9.14491 19.9964 14.2343 18.7005 21.003 18.4L21.003 14.8826H12.6745L12.6745 9.519ZM21.0059 18.8108C15.0265 19.0673 10.5623 20.0725 10.5623 21.277C10.5623 22.4815 15.026 23.4882 21.0059 23.7442L21.0059 23.7395C21.3913 23.7589 22.4845 23.8015 24.0385 23.8015C25.9821 23.8015 26.8553 23.7508 27.0251 23.7404L27.0251 23.7433L27.0261 23.7409C32.9922 23.4839 37.4476 22.4758 37.4476 21.2756C37.4476 20.0754 32.9942 19.0678 27.0261 18.8108L27.0261 22.7413C26.8548 22.7565 25.921 22.8313 24.064 22.8313C22.5178 22.8313 21.3976 22.7674 21.0059 22.7413L21.0059 18.8108Z" fill="#6BBB34"/>
</svg>
