<svg width="32" height="32" viewBox="0 0 32 32" fill="none" xmlns="http://www.w3.org/2000/svg">
<path d="M20.8 4.39999C18.9333 4.39999 17.3333 5.06666 16 6.39999L13.0666 9.33333C12.5333 9.86666 12.5333 10.6667 13.0666 11.2C13.6 11.7333 14.4 11.7333 14.9333 11.2L17.8666 8.26666C19.4666 6.66666 22.1333 6.66666 23.7333 8.26666C24.5333 9.06666 24.9333 10.1333 24.9333 11.2C24.9333 12.2667 24.5333 13.3333 23.7333 14.1333L20.8 17.0667C20.2666 17.6 20.2666 18.4 20.8 18.9333C21.0666 19.2 21.4666 19.3333 21.7333 19.3333C22 19.3333 22.4 19.2 22.6666 18.9333L25.6 16C26.9333 14.6667 27.6 13.0667 27.6 11.2C27.6 9.33333 26.9333 7.73333 25.6 6.39999C24.2666 5.06666 22.6666 4.39999 20.8 4.39999Z" fill="#6BBB34"/>
<path d="M11.2 15.0667C11.7333 14.5333 11.7333 13.7333 11.2 13.2C10.6666 12.6667 9.86663 12.6667 9.3333 13.2L6.39996 16C5.06663 17.3333 4.39996 18.9333 4.39996 20.8C4.39996 22.6667 5.06663 24.2667 6.39996 25.6C7.7333 26.9333 9.3333 27.6 11.2 27.6C13.0666 27.6 14.6666 26.9333 16 25.6L18.9333 22.6667C19.4666 22.1333 19.4666 21.3333 18.9333 20.8C18.4 20.2667 17.6 20.2667 17.0666 20.8L14.1333 23.7333C12.5333 25.3333 9.86663 25.3333 8.26663 23.7333C7.46663 22.9333 7.06663 21.8667 7.06663 20.8C7.06663 19.7333 7.46663 18.6667 8.26663 17.8667L11.2 15.0667Z" fill="#6BBB34"/>
<path d="M12.1333 19.8667C12.4 20.1333 12.8 20.2667 13.0666 20.2667C13.3333 20.2667 13.7333 20.1333 14 19.8667L19.7333 14.1333C20.2666 13.6 20.2666 12.8 19.7333 12.2667C19.2 11.7333 18.4 11.7333 17.8666 12.2667L12.1333 18C11.6 18.4 11.6 19.3333 12.1333 19.8667Z" fill="#6BBB34"/>
</svg>
