<svg width="32" height="32" viewBox="0 0 32 32" fill="none" xmlns="http://www.w3.org/2000/svg">
<path d="M24 6.66666H8.00002C5.06669 6.66666 2.66669 9.06666 2.66669 12V20C2.66669 22.9333 5.06669 25.3333 8.00002 25.3333H24C26.9334 25.3333 29.3334 22.9333 29.3334 20V12C29.3334 9.06666 26.9334 6.66666 24 6.66666ZM26.6667 20C26.6667 21.4667 25.4667 22.6667 24 22.6667H8.00002C6.53335 22.6667 5.33335 21.4667 5.33335 20V12C5.33335 10.5333 6.53335 9.33332 8.00002 9.33332H24C25.4667 9.33332 26.6667 10.5333 26.6667 12V20Z" fill="#6BBB34"/>
<path d="M15.4667 14.4H18C18.8 14.4 19.3334 13.8667 19.3334 13.0667C19.3334 12.2667 18.8 11.7333 18 11.7333H17.2C17.0667 11.0667 16.6667 10.6667 16 10.6667C15.3334 10.6667 14.8 11.2 14.6667 11.7333C13.4667 12.1333 12.6667 13.2 12.6667 14.4C12.6667 16 14 17.2 15.4667 17.2H16.5334C16.6667 17.2 16.6667 17.3333 16.6667 17.3333L16.5334 17.4667H14C13.2 17.4667 12.6667 18 12.6667 18.8C12.6667 19.6 13.2 20.1333 14 20.1333H14.8C14.9334 20.6667 15.4667 21.2 16 21.2C16.6667 21.2 17.2 20.6667 17.3334 20.1333C18.5334 19.7333 19.3334 18.6667 19.3334 17.4667C19.3334 15.8667 18 14.6667 16.5334 14.6667H15.4667C15.3334 14.6667 15.3334 14.5333 15.3334 14.5333L15.4667 14.4Z" fill="#6BBB34"/>
<path d="M8.00002 21.3333C8.7364 21.3333 9.33335 20.7364 9.33335 20C9.33335 19.2636 8.7364 18.6667 8.00002 18.6667C7.26364 18.6667 6.66669 19.2636 6.66669 20C6.66669 20.7364 7.26364 21.3333 8.00002 21.3333Z" fill="#6BBB34"/>
<path d="M24 13.3333C24.7364 13.3333 25.3334 12.7364 25.3334 12C25.3334 11.2636 24.7364 10.6667 24 10.6667C23.2636 10.6667 22.6667 11.2636 22.6667 12C22.6667 12.7364 23.2636 13.3333 24 13.3333Z" fill="#6BBB34"/>
</svg>
