<svg width="48" height="48" viewBox="0 0 48 48" fill="none" xmlns="http://www.w3.org/2000/svg">
<path d="M36 6H12C7.6 6 4 9.6 4 14V34C4 38.4 7.6 42 12 42H36C40.4 42 44 38.4 44 34V14C44 9.6 40.4 6 36 6ZM40 34C40 36.2 38.2 38 36 38H12C9.8 38 8 36.2 8 34V20H40V34ZM40 16H8V14C8 11.8 9.8 10 12 10H36C38.2 10 40 11.8 40 14V16Z" fill="#151C24"/>
<path d="M21.7999 14.8C22.6836 14.8 23.4 14.0837 23.4 13.2C23.4 12.3163 22.6836 11.6 21.7999 11.6C20.9163 11.6 20.2 12.3163 20.2 13.2C20.2 14.0837 20.9163 14.8 21.7999 14.8Z" fill="#151C24"/>
<path d="M16.6 14.8C17.4837 14.8 18.2 14.0837 18.2 13.2C18.2 12.3163 17.4837 11.6 16.6 11.6C15.7163 11.6 15 12.3163 15 13.2C15 14.0837 15.7163 14.8 16.6 14.8Z" fill="#151C24"/>
<path d="M11.6 14.8C12.4837 14.8 13.2 14.0837 13.2 13.2C13.2 12.3163 12.4837 11.6 11.6 11.6C10.7163 11.6 10 12.3163 10 13.2C10 14.0837 10.7163 14.8 11.6 14.8Z" fill="#151C24"/>
</svg>
