<svg width="297" height="166" viewBox="0 0 297 166" fill="none" xmlns="http://www.w3.org/2000/svg">
<rect y="76" width="297" height="66" rx="30" fill="#E9E9F0"/>
<rect y="76" width="296.786" height="60" rx="30" fill="white"/>
<path fill-rule="evenodd" clip-rule="evenodd" d="M29.619 96C26.9891 96 24.8571 98.132 24.8571 100.762V102.667H23.9048C22.8528 102.667 22 103.519 22 104.571V114.095C22 115.147 22.8528 116 23.9048 116H35.3333C36.3853 116 37.2381 115.147 37.2381 114.095V104.571C37.2381 103.519 36.3853 102.667 35.3333 102.667H34.381V100.762C34.381 98.132 32.249 96 29.619 96ZM32.4762 102.667V100.762C32.4762 99.1839 31.197 97.9048 29.619 97.9048C28.0411 97.9048 26.7619 99.1839 26.7619 100.762V102.667H32.4762Z" fill="#5E6671"/>
<rect x="21.5" y="0.5" width="63" height="45" rx="5.5" stroke="#A0ACBC" stroke-dasharray="4 4"/>
<rect x="115.5" y="0.5" width="63" height="45" rx="5.5" stroke="#A0ACBC" stroke-dasharray="4 4"/>
<rect x="209.5" y="0.5" width="63" height="45" rx="5.5" stroke="#A0ACBC" stroke-dasharray="4 4"/>
<line x1="147.5" y1="49" x2="147.5" y2="73" stroke="#A0ACBC" stroke-dasharray="4 4"/>
<line x1="182" y1="23.5" x2="206" y2="23.5" stroke="#A0ACBC" stroke-dasharray="4 4"/>
<line x1="88" y1="23.5" x2="112" y2="23.5" stroke="#A0ACBC" stroke-dasharray="4 4"/>
<path fill-rule="evenodd" clip-rule="evenodd" d="M246.938 131.571C246.936 129.843 245.499 128.442 243.726 128.442C241.952 128.442 240.514 129.845 240.514 131.575V134.709L240.514 137.059C240.514 137.491 240.154 137.842 239.71 137.842C239.267 137.842 238.907 137.491 238.907 137.059V134.709H238.907V119.042C238.907 117.312 237.469 115.909 235.695 115.909C233.921 115.909 232.482 117.312 232.482 119.042V134.709V140.975V144.907L230.022 140.582C229.161 139.069 227.205 138.523 225.654 139.362C224.103 140.202 223.543 142.109 224.404 143.623L233.283 159.228C234.224 160.883 235.956 161.839 237.764 161.896C239.072 162.544 240.552 162.909 242.119 162.909H253.363C258.685 162.909 263 158.7 263 153.509V141.011L263 140.975V134.709C263 132.978 261.562 131.575 259.788 131.575C258.014 131.575 256.575 132.978 256.575 134.709L256.575 137.059C256.575 137.491 256.216 137.842 255.772 137.842C255.329 137.842 254.969 137.491 254.969 137.059L254.969 134.709V131.575L254.969 131.571C254.967 129.843 253.529 128.442 251.757 128.442C249.983 128.442 248.544 129.845 248.544 131.575V134.709L248.544 137.059C248.544 137.491 248.185 137.842 247.741 137.842C247.298 137.842 246.938 137.491 246.938 137.059V131.571Z" fill="white"/>
<path fill-rule="evenodd" clip-rule="evenodd" d="M248.497 131.706C248.497 131.704 248.497 131.703 248.497 131.702C248.497 131.701 248.497 131.702 248.497 131.702C248.499 130.755 248.932 129.906 249.613 129.336C250.169 128.87 250.891 128.588 251.68 128.588C253.131 128.588 254.355 129.54 254.738 130.841C254.818 131.114 254.862 131.403 254.862 131.702V137.162C254.862 137.592 255.218 137.941 255.658 137.941C256.097 137.941 256.453 137.592 256.453 137.162L256.453 134.824C256.453 133.67 257.093 132.662 258.044 132.123C258.512 131.858 259.056 131.706 259.635 131.706C261.393 131.706 262.818 133.102 262.818 134.824V141.059L262.818 141.094V153.529C262.818 158.695 258.543 162.882 253.271 162.882H242.133C240.58 162.882 239.114 162.519 237.818 161.875C236.027 161.818 234.311 160.867 233.379 159.22L224.583 143.693C223.73 142.187 224.285 140.289 225.822 139.454C227.004 138.811 228.423 138.984 229.404 139.784C229.697 140.024 229.952 140.32 230.148 140.667L232.586 144.97V119.235C232.586 117.513 234.011 116.118 235.768 116.118C237.526 116.118 238.95 117.513 238.95 119.235V134.824L238.951 137.162C238.951 137.592 239.307 137.941 239.746 137.941C240.186 137.941 240.542 137.592 240.542 137.162L240.542 131.706C240.542 130.552 241.182 129.545 242.133 129.005C242.601 128.74 243.144 128.588 243.724 128.588C244.513 128.588 245.235 128.87 245.791 129.336C246.473 129.906 246.905 130.755 246.906 131.702V137.162C246.906 137.592 247.263 137.941 247.702 137.941C248.141 137.941 248.497 137.592 248.497 137.162L248.497 131.706ZM247.702 126.838C248.792 125.982 250.175 125.471 251.68 125.471C254.198 125.471 256.374 126.903 257.406 128.981C258.1 128.727 258.851 128.588 259.635 128.588C263.15 128.588 266 131.38 266 134.824V141.076L266 141.103V153.529C266 160.417 260.301 166 253.271 166H242.133C240.305 166 238.56 165.621 236.982 164.936C234.389 164.631 231.966 163.151 230.596 160.733L221.801 145.206C220.095 142.195 221.204 138.399 224.277 136.728C225.909 135.841 227.765 135.731 229.404 136.273V119.235C229.404 115.792 232.253 113 235.768 113C239.283 113 242.133 115.792 242.133 119.235V125.667C242.641 125.539 243.175 125.471 243.724 125.471C245.229 125.471 246.612 125.982 247.702 126.838Z" fill="black"/>
<path d="M239.974 31.5476C238.859 31.4524 237.877 31.1905 237.03 30.7619C236.197 30.3175 235.52 29.7381 235 29.0238L236.941 26.7619C237.416 27.3016 237.922 27.7222 238.457 28.0238C239.007 28.3254 239.587 28.5238 240.197 28.619V24.2381L239.684 24.1429C238.257 23.873 237.201 23.3175 236.517 22.4762C235.833 21.619 235.491 20.5794 235.491 19.3571C235.491 18.0079 235.877 16.9127 236.651 16.0714C237.424 15.2302 238.532 14.7063 239.974 14.5V12H242.517V14.4762C243.454 14.6032 244.249 14.8571 244.903 15.2381C245.572 15.6191 246.13 16.0873 246.576 16.6429L244.658 18.9286C244.033 18.1984 243.245 17.7222 242.294 17.5V21.4762L242.807 21.5714C244.234 21.8571 245.29 22.4127 245.974 23.2381C246.658 24.0476 247 25.0556 247 26.2619C247 26.9127 246.896 27.5238 246.688 28.0952C246.494 28.6667 246.204 29.1746 245.818 29.619C245.446 30.0635 244.978 30.4444 244.413 30.7619C243.862 31.0635 243.23 31.2857 242.517 31.4286V34H239.974V31.5476ZM238.636 19.2381C238.636 19.746 238.755 20.1349 238.993 20.4048C239.245 20.6587 239.647 20.8651 240.197 21.0238V17.4286C239.647 17.5238 239.245 17.7222 238.993 18.0238C238.755 18.3254 238.636 18.7302 238.636 19.2381ZM243.877 26.5C243.877 25.9603 243.751 25.5556 243.498 25.2857C243.245 25.0159 242.844 24.8095 242.294 24.6667V28.5952C242.829 28.4683 243.223 28.2302 243.476 27.881C243.743 27.5159 243.877 27.0556 243.877 26.5Z" fill="#A0ACBC"/>
<path d="M151.833 22.0341C154.4 22.0341 156.5 19.9981 156.5 17.5095C156.5 15.021 154.4 12.9849 151.833 12.9849C149.267 12.9849 147.167 15.021 147.167 17.5095C147.167 17.8488 147.167 18.1882 147.283 18.4144L143.667 20.2243C142.85 19.2062 141.567 18.6407 140.167 18.6407C137.6 18.6407 135.5 20.6767 135.5 23.1653C135.5 25.6538 137.6 27.6899 140.167 27.6899C141.567 27.6899 142.85 27.1244 143.667 26.1063L147.283 27.8031C147.167 28.1424 147.167 28.4817 147.167 28.8211C147.167 31.3096 149.267 33.3457 151.833 33.3457C154.4 33.3457 156.5 31.3096 156.5 28.8211C156.5 26.3325 154.4 24.2965 151.833 24.2965C150.433 24.2965 149.15 24.862 148.333 25.8801L144.717 24.1833C144.833 23.844 144.833 23.5046 144.833 23.1653C144.833 22.826 144.833 22.4866 144.717 22.2604L148.333 20.4505C149.15 21.4686 150.433 22.0341 151.833 22.0341ZM151.833 26.5588C153.117 26.5588 154.167 27.5768 154.167 28.8211C154.167 30.0654 153.117 31.0834 151.833 31.0834C150.55 31.0834 149.5 30.0654 149.5 28.8211C149.5 27.5768 150.55 26.5588 151.833 26.5588ZM151.833 15.2472C153.117 15.2472 154.167 16.2652 154.167 17.5095C154.167 18.7538 153.117 19.7718 151.833 19.7718C150.9 19.7718 150.2 19.3194 149.733 18.5275C149.617 18.1882 149.5 17.8488 149.5 17.5095C149.5 16.2652 150.55 15.2472 151.833 15.2472ZM140.167 25.4276C138.883 25.4276 137.833 24.4096 137.833 23.1653C137.833 21.921 138.883 20.903 140.167 20.903C141.1 20.903 141.8 21.3554 142.267 22.1473C142.383 22.4866 142.5 22.826 142.5 23.1653C142.5 23.5046 142.383 23.844 142.267 24.1833C141.8 24.9752 141.1 25.4276 140.167 25.4276Z" fill="#A0ACBC"/>
<path d="M38.0528 29.7839V27.6053H41.4076V19.1787H41.247L38.7131 22.5277L37 21.1773L39.9801 17.2161H44.0843V27.6053H46.7253V29.7839H38.0528Z" fill="#A0ACBC"/>
<path d="M52.4286 30C50.7631 30 49.5318 29.4298 48.7348 28.2895C47.9496 27.1491 47.557 25.5526 47.557 23.5C47.557 21.4474 47.9496 19.8509 48.7348 18.7105C49.5318 17.5702 50.7631 17 52.4286 17C54.0941 17 55.3194 17.5702 56.1046 18.7105C56.9017 19.8509 57.3002 21.4474 57.3002 23.5C57.3002 25.5526 56.9017 27.1491 56.1046 28.2895C55.3194 29.4298 54.0941 30 52.4286 30ZM52.4286 27.8753C53.2257 27.8753 53.7789 27.5933 54.0882 27.0291C54.4094 26.4649 54.57 25.6787 54.57 24.6704V22.3296C54.57 21.3213 54.4094 20.5351 54.0882 19.9709C53.7789 19.4067 53.2257 19.1247 52.4286 19.1247C51.6316 19.1247 51.0724 19.4067 50.7512 19.9709C50.4419 20.5351 50.2873 21.3213 50.2873 22.3296V24.6704C50.2873 25.6787 50.4419 26.4649 50.7512 27.0291C51.0724 27.5933 51.6316 27.8753 52.4286 27.8753ZM52.4286 24.5623C52.0122 24.5623 51.7208 24.4783 51.5542 24.3102C51.3996 24.1422 51.3223 23.9381 51.3223 23.6981V23.3019C51.3223 23.0619 51.3996 22.8578 51.5542 22.6898C51.7208 22.5217 52.0122 22.4377 52.4286 22.4377C52.845 22.4377 53.1305 22.5217 53.2852 22.6898C53.4517 22.8578 53.535 23.0619 53.535 23.3019V23.6981C53.535 23.9381 53.4517 24.1422 53.2852 24.3102C53.1305 24.4783 52.845 24.5623 52.4286 24.5623Z" fill="#A0ACBC"/>
<path d="M63.1284 30C61.4629 30 60.2316 29.4298 59.4346 28.2895C58.6494 27.1491 58.2568 25.5526 58.2568 23.5C58.2568 21.4474 58.6494 19.8509 59.4346 18.7105C60.2316 17.5702 61.4629 17 63.1284 17C64.7939 17 66.0192 17.5702 66.8044 18.7105C67.6015 19.8509 68 21.4474 68 23.5C68 25.5526 67.6015 27.1491 66.8044 28.2895C66.0192 29.4298 64.7939 30 63.1284 30ZM63.1284 27.8753C63.9255 27.8753 64.4787 27.5933 64.788 27.0291C65.1092 26.4649 65.2698 25.6787 65.2698 24.6704V22.3296C65.2698 21.3213 65.1092 20.5351 64.788 19.9709C64.4787 19.4067 63.9255 19.1247 63.1284 19.1247C62.3314 19.1247 61.7722 19.4067 61.451 19.9709C61.1417 20.5351 60.9871 21.3213 60.9871 22.3296V24.6704C60.9871 25.6787 61.1417 26.4649 61.451 27.0291C61.7722 27.5933 62.3314 27.8753 63.1284 27.8753ZM63.1284 24.5623C62.712 24.5623 62.4206 24.4783 62.254 24.3102C62.0994 24.1422 62.0221 23.9381 62.0221 23.6981V23.3019C62.0221 23.0619 62.0994 22.8578 62.254 22.6898C62.4206 22.5217 62.712 22.4377 63.1284 22.4377C63.5448 22.4377 63.8303 22.5217 63.985 22.6898C64.1515 22.8578 64.2348 23.0619 64.2348 23.3019V23.6981C64.2348 23.9381 64.1515 24.1422 63.985 24.3102C63.8303 24.4783 63.5448 24.5623 63.1284 24.5623Z" fill="#A0ACBC"/>
<path d="M95.0039 104.465V117.062H93.1875V102.434H94.8477L95.0039 104.465ZM102.123 107.629V107.834C102.123 108.602 102.032 109.315 101.85 109.973C101.667 110.624 101.4 111.19 101.049 111.672C100.704 112.154 100.277 112.528 99.7695 112.795C99.2617 113.062 98.679 113.195 98.0215 113.195C97.3509 113.195 96.7585 113.085 96.2441 112.863C95.7298 112.642 95.2936 112.32 94.9355 111.896C94.5775 111.473 94.291 110.965 94.0762 110.373C93.8678 109.781 93.7246 109.113 93.6465 108.371V107.277C93.7246 106.496 93.8711 105.796 94.0859 105.178C94.3008 104.559 94.584 104.032 94.9355 103.596C95.2936 103.153 95.7266 102.818 96.2344 102.59C96.7422 102.355 97.3281 102.238 97.9922 102.238C98.6562 102.238 99.2454 102.368 99.7598 102.629C100.274 102.883 100.707 103.247 101.059 103.723C101.41 104.198 101.674 104.768 101.85 105.432C102.032 106.089 102.123 106.822 102.123 107.629ZM100.307 107.834V107.629C100.307 107.102 100.251 106.607 100.141 106.145C100.03 105.676 99.8574 105.266 99.623 104.914C99.3952 104.556 99.1022 104.276 98.7441 104.074C98.3861 103.866 97.9596 103.762 97.4648 103.762C97.0091 103.762 96.612 103.84 96.2734 103.996C95.9414 104.152 95.6582 104.364 95.4238 104.631C95.1895 104.891 94.9974 105.191 94.8477 105.529C94.7044 105.861 94.597 106.206 94.5254 106.564V109.094C94.6556 109.549 94.8379 109.979 95.0723 110.383C95.3066 110.78 95.6191 111.102 96.0098 111.35C96.4004 111.59 96.8919 111.711 97.4844 111.711C97.9727 111.711 98.3926 111.61 98.7441 111.408C99.1022 111.2 99.3952 110.917 99.623 110.559C99.8574 110.201 100.03 109.79 100.141 109.328C100.251 108.859 100.307 108.361 100.307 107.834ZM110.658 111.193V105.754C110.658 105.337 110.574 104.976 110.404 104.67C110.242 104.357 109.994 104.117 109.662 103.947C109.33 103.778 108.92 103.693 108.432 103.693C107.976 103.693 107.576 103.771 107.23 103.928C106.892 104.084 106.625 104.289 106.43 104.543C106.241 104.797 106.146 105.07 106.146 105.363H104.34C104.34 104.986 104.438 104.611 104.633 104.24C104.828 103.869 105.108 103.534 105.473 103.234C105.844 102.928 106.286 102.688 106.801 102.512C107.322 102.329 107.901 102.238 108.539 102.238C109.307 102.238 109.984 102.368 110.57 102.629C111.163 102.889 111.625 103.283 111.957 103.811C112.296 104.331 112.465 104.986 112.465 105.773V110.695C112.465 111.047 112.494 111.421 112.553 111.818C112.618 112.215 112.712 112.557 112.836 112.844V113H110.951C110.86 112.792 110.788 112.515 110.736 112.17C110.684 111.818 110.658 111.493 110.658 111.193ZM110.971 106.594L110.99 107.863H109.164C108.65 107.863 108.191 107.906 107.787 107.99C107.383 108.068 107.045 108.189 106.771 108.352C106.498 108.514 106.29 108.719 106.146 108.967C106.003 109.208 105.932 109.491 105.932 109.816C105.932 110.148 106.007 110.451 106.156 110.725C106.306 110.998 106.531 111.216 106.83 111.379C107.136 111.535 107.51 111.613 107.953 111.613C108.507 111.613 108.995 111.496 109.418 111.262C109.841 111.027 110.176 110.741 110.424 110.402C110.678 110.064 110.814 109.735 110.834 109.416L111.605 110.285C111.56 110.559 111.436 110.861 111.234 111.193C111.033 111.525 110.762 111.844 110.424 112.15C110.092 112.45 109.695 112.701 109.232 112.902C108.777 113.098 108.262 113.195 107.689 113.195C106.973 113.195 106.345 113.055 105.805 112.775C105.271 112.495 104.854 112.121 104.555 111.652C104.262 111.177 104.115 110.646 104.115 110.061C104.115 109.494 104.226 108.996 104.447 108.566C104.669 108.13 104.988 107.769 105.404 107.482C105.821 107.189 106.322 106.968 106.908 106.818C107.494 106.669 108.148 106.594 108.871 106.594H110.971ZM118.119 111.906L121.059 102.434H122.992L118.754 114.631C118.656 114.891 118.526 115.171 118.363 115.471C118.207 115.777 118.005 116.066 117.758 116.34C117.51 116.613 117.211 116.835 116.859 117.004C116.514 117.18 116.101 117.268 115.619 117.268C115.476 117.268 115.294 117.248 115.072 117.209C114.851 117.17 114.695 117.137 114.604 117.111L114.594 115.646C114.646 115.653 114.727 115.66 114.838 115.666C114.955 115.679 115.036 115.686 115.082 115.686C115.492 115.686 115.84 115.63 116.127 115.52C116.413 115.415 116.654 115.236 116.85 114.982C117.051 114.735 117.224 114.393 117.367 113.957L118.119 111.906ZM115.961 102.434L118.705 110.637L119.174 112.541L117.875 113.205L113.988 102.434H115.961ZM126.42 104.533V113H124.604V102.434H126.322L126.42 104.533ZM126.049 107.316L125.209 107.287C125.215 106.564 125.31 105.897 125.492 105.285C125.674 104.667 125.945 104.13 126.303 103.674C126.661 103.218 127.107 102.867 127.641 102.619C128.174 102.365 128.793 102.238 129.496 102.238C129.991 102.238 130.447 102.31 130.863 102.453C131.28 102.59 131.641 102.808 131.947 103.107C132.253 103.407 132.491 103.791 132.66 104.26C132.829 104.729 132.914 105.295 132.914 105.959V113H131.107V106.047C131.107 105.493 131.013 105.051 130.824 104.719C130.642 104.387 130.382 104.146 130.043 103.996C129.704 103.84 129.307 103.762 128.852 103.762C128.318 103.762 127.872 103.856 127.514 104.045C127.156 104.234 126.869 104.494 126.654 104.826C126.439 105.158 126.283 105.539 126.186 105.969C126.094 106.392 126.049 106.841 126.049 107.316ZM132.895 106.32L131.684 106.691C131.69 106.112 131.785 105.555 131.967 105.021C132.156 104.488 132.426 104.012 132.777 103.596C133.135 103.179 133.575 102.85 134.096 102.609C134.617 102.362 135.212 102.238 135.883 102.238C136.449 102.238 136.951 102.313 137.387 102.463C137.829 102.613 138.201 102.844 138.5 103.156C138.806 103.462 139.037 103.856 139.193 104.338C139.35 104.82 139.428 105.393 139.428 106.057V113H137.611V106.037C137.611 105.445 137.517 104.986 137.328 104.66C137.146 104.328 136.885 104.097 136.547 103.967C136.215 103.83 135.818 103.762 135.355 103.762C134.958 103.762 134.607 103.83 134.301 103.967C133.995 104.104 133.738 104.292 133.529 104.533C133.321 104.768 133.161 105.038 133.051 105.344C132.947 105.65 132.895 105.975 132.895 106.32ZM146.547 113.195C145.811 113.195 145.144 113.072 144.545 112.824C143.952 112.57 143.441 112.215 143.012 111.76C142.589 111.304 142.263 110.764 142.035 110.139C141.807 109.514 141.693 108.83 141.693 108.088V107.678C141.693 106.818 141.82 106.053 142.074 105.383C142.328 104.706 142.673 104.133 143.109 103.664C143.546 103.195 144.04 102.84 144.594 102.6C145.147 102.359 145.72 102.238 146.312 102.238C147.068 102.238 147.719 102.368 148.266 102.629C148.819 102.889 149.271 103.254 149.623 103.723C149.975 104.185 150.235 104.732 150.404 105.363C150.574 105.988 150.658 106.672 150.658 107.414V108.225H142.768V106.75H148.852V106.613C148.826 106.145 148.728 105.689 148.559 105.246C148.396 104.803 148.135 104.439 147.777 104.152C147.419 103.866 146.931 103.723 146.312 103.723C145.902 103.723 145.525 103.811 145.18 103.986C144.835 104.156 144.538 104.41 144.291 104.748C144.044 105.087 143.852 105.5 143.715 105.988C143.578 106.477 143.51 107.04 143.51 107.678V108.088C143.51 108.589 143.578 109.061 143.715 109.504C143.858 109.94 144.063 110.324 144.33 110.656C144.604 110.988 144.932 111.249 145.316 111.438C145.707 111.626 146.15 111.721 146.645 111.721C147.283 111.721 147.823 111.59 148.266 111.33C148.708 111.07 149.096 110.721 149.428 110.285L150.521 111.154C150.294 111.499 150.004 111.828 149.652 112.141C149.301 112.453 148.868 112.707 148.354 112.902C147.846 113.098 147.243 113.195 146.547 113.195ZM154.574 104.689V113H152.768V102.434H154.477L154.574 104.689ZM154.145 107.316L153.393 107.287C153.399 106.564 153.507 105.897 153.715 105.285C153.923 104.667 154.216 104.13 154.594 103.674C154.971 103.218 155.421 102.867 155.941 102.619C156.469 102.365 157.051 102.238 157.689 102.238C158.21 102.238 158.679 102.31 159.096 102.453C159.512 102.59 159.867 102.811 160.16 103.117C160.46 103.423 160.688 103.82 160.844 104.309C161 104.79 161.078 105.38 161.078 106.076V113H159.262V106.057C159.262 105.503 159.18 105.061 159.018 104.729C158.855 104.39 158.617 104.146 158.305 103.996C157.992 103.84 157.608 103.762 157.152 103.762C156.703 103.762 156.293 103.856 155.922 104.045C155.557 104.234 155.242 104.494 154.975 104.826C154.714 105.158 154.509 105.539 154.359 105.969C154.216 106.392 154.145 106.841 154.145 107.316ZM168.246 102.434V103.82H162.533V102.434H168.246ZM164.467 99.8652H166.273V110.383C166.273 110.741 166.329 111.011 166.439 111.193C166.55 111.376 166.693 111.496 166.869 111.555C167.045 111.613 167.234 111.643 167.436 111.643C167.585 111.643 167.742 111.63 167.904 111.604C168.074 111.571 168.201 111.545 168.285 111.525L168.295 113C168.152 113.046 167.963 113.088 167.729 113.127C167.501 113.173 167.224 113.195 166.898 113.195C166.456 113.195 166.049 113.107 165.678 112.932C165.307 112.756 165.01 112.463 164.789 112.053C164.574 111.636 164.467 111.076 164.467 110.373V99.8652ZM170.395 112.043C170.395 111.737 170.489 111.48 170.678 111.271C170.873 111.057 171.153 110.949 171.518 110.949C171.882 110.949 172.159 111.057 172.348 111.271C172.543 111.48 172.641 111.737 172.641 112.043C172.641 112.342 172.543 112.596 172.348 112.805C172.159 113.013 171.882 113.117 171.518 113.117C171.153 113.117 170.873 113.013 170.678 112.805C170.489 112.596 170.395 112.342 170.395 112.043ZM177.602 98V113H175.785V98H177.602ZM182.465 102.434V113H180.648V102.434H182.465ZM180.512 99.6309C180.512 99.3379 180.6 99.0905 180.775 98.8887C180.958 98.6868 181.225 98.5859 181.576 98.5859C181.921 98.5859 182.185 98.6868 182.367 98.8887C182.556 99.0905 182.65 99.3379 182.65 99.6309C182.65 99.9108 182.556 100.152 182.367 100.354C182.185 100.549 181.921 100.646 181.576 100.646C181.225 100.646 180.958 100.549 180.775 100.354C180.6 100.152 180.512 99.9108 180.512 99.6309ZM187.172 104.689V113H185.365V102.434H187.074L187.172 104.689ZM186.742 107.316L185.99 107.287C185.997 106.564 186.104 105.897 186.312 105.285C186.521 104.667 186.814 104.13 187.191 103.674C187.569 103.218 188.018 102.867 188.539 102.619C189.066 102.365 189.649 102.238 190.287 102.238C190.808 102.238 191.277 102.31 191.693 102.453C192.11 102.59 192.465 102.811 192.758 103.117C193.057 103.423 193.285 103.82 193.441 104.309C193.598 104.79 193.676 105.38 193.676 106.076V113H191.859V106.057C191.859 105.503 191.778 105.061 191.615 104.729C191.452 104.39 191.215 104.146 190.902 103.996C190.59 103.84 190.206 103.762 189.75 103.762C189.301 103.762 188.891 103.856 188.52 104.045C188.155 104.234 187.839 104.494 187.572 104.826C187.312 105.158 187.107 105.539 186.957 105.969C186.814 106.392 186.742 106.841 186.742 107.316ZM198.236 98V113H196.42V98H198.236ZM204.691 102.434L200.082 107.365L197.504 110.041L197.357 108.117L199.203 105.91L202.484 102.434H204.691ZM203.041 113L199.271 107.961L200.209 106.35L205.17 113H203.041Z" fill="black"/>
</svg>
