<svg width="228" height="204" viewBox="0 0 228 204" fill="none" xmlns="http://www.w3.org/2000/svg">
<path d="M23.5775 177.306V116.338C25.164 114.08 32.9374 109.564 51.34 109.564C69.7425 109.564 86.7702 120.19 92.9837 125.503H146.922C155.684 125.503 162.786 132.639 162.786 141.442V142.239C162.786 150.602 156.039 157.381 147.715 157.381H93.7769C91.1484 157.381 89.0176 159.522 89.0176 162.163C89.0176 164.804 91.1484 166.945 93.7769 166.945H146.922C160.503 166.945 171.512 155.884 171.512 142.239V136.66L202.312 118.038C210.06 113.354 220.118 115.851 224.802 123.622C229.528 131.461 226.981 141.667 219.134 146.339L132.388 197.987C121.718 204.34 108.83 205.734 97.0588 201.809L23.5775 177.306Z" fill="white"/>
<path d="M0.177734 106.376C0.177734 102.855 3.0188 100 6.52344 100C10.0281 100 12.8691 102.855 12.8691 106.376V184.478C12.8691 187.999 10.0281 190.854 6.52344 190.854C3.0188 190.854 0.177734 187.999 0.177734 184.478V106.376Z" fill="white"/>
<mask id="mask0_137_1552" style="mask-type:alpha" maskUnits="userSpaceOnUse" x="68" y="0" width="104" height="106">
<path d="M172 53C172 82.2711 148.719 106 120 106C91.2812 106 68 82.2711 68 53C68 23.7289 91.2812 0 120 0C148.719 0 172 23.7289 172 53Z" fill="#C4C4C4"/>
</mask>
<g mask="url(#mask0_137_1552)">
<path d="M172 53C172 82.2711 148.719 106 120 106C91.2812 106 68 82.2711 68 53C68 23.7289 91.2812 0 120 0C148.719 0 172 23.7289 172 53Z" fill="#539A22"/>
</g>
<mask id="mask1_137_1552" style="mask-type:alpha" maskUnits="userSpaceOnUse" x="79" y="11" width="82" height="84">
<path d="M160.319 53.0005C160.319 75.9992 142.214 94.6434 119.882 94.6434C97.5488 94.6434 79.4445 75.9992 79.4445 53.0005C79.4445 30.0018 97.5488 11.3577 119.882 11.3577C142.214 11.3577 160.319 30.0018 160.319 53.0005Z" fill="#C4C4C4"/>
</mask>
<g mask="url(#mask1_137_1552)">
<ellipse cx="119.882" cy="53.0014" rx="42.0547" ry="43.3086" fill="#3B8107"/>
<ellipse cx="119.906" cy="54.8121" rx="40.0328" ry="41.2264" fill="#6BBB34"/>
</g>
<path d="M117.108 81.2047C116.687 81.2047 116.309 81.059 115.972 80.7675C115.677 80.4761 115.53 80.1014 115.53 79.6435V75.2722C112.372 74.8975 109.678 74.1273 107.447 72.9616C105.258 71.7543 103.595 70.2764 102.458 68.5278C101.364 66.7793 100.774 64.9267 100.69 62.97C100.69 62.5953 100.816 62.2831 101.069 62.0333C101.364 61.7835 101.7 61.6586 102.079 61.6586H110.478C111.025 61.6586 111.446 61.7419 111.741 61.9084C112.036 62.0749 112.372 62.3664 112.751 62.7827C114.056 65.0724 116.456 66.2173 119.95 66.2173C122.223 66.2173 123.971 65.8842 125.191 65.2181C126.454 64.5104 127.086 63.5529 127.086 62.3455C127.086 61.4713 126.749 60.7635 126.075 60.2223C125.444 59.6395 124.434 59.1399 123.044 58.7236C121.697 58.2656 119.698 57.7661 117.045 57.2248C111.951 56.2257 108.141 54.7061 105.616 52.6662C103.09 50.6262 101.827 47.712 101.827 43.9235C101.827 40.5514 103.048 37.6996 105.489 35.3682C107.931 32.9952 111.278 31.5173 115.53 30.9345V26.5631C115.53 26.1052 115.677 25.7305 115.972 25.4391C116.309 25.1477 116.687 25.002 117.108 25.002H122.602C123.065 25.002 123.444 25.1477 123.739 25.4391C124.034 25.7305 124.181 26.1052 124.181 26.5631V31.0594C126.96 31.5589 129.359 32.454 131.38 33.7446C133.401 34.9935 134.937 36.4507 135.99 38.1159C137.084 39.7396 137.674 41.3216 137.758 42.8619C137.758 43.2366 137.631 43.5697 137.379 43.8611C137.126 44.1109 136.811 44.2358 136.432 44.2358H127.591C126.623 44.2358 125.907 43.8611 125.444 43.1117C125.191 42.2375 124.518 41.5089 123.423 40.9261C122.371 40.3016 121.087 39.9893 119.571 39.9893C117.803 39.9893 116.435 40.3016 115.467 40.9261C114.498 41.5505 114.014 42.4664 114.014 43.6737C114.014 44.8811 114.646 45.8386 115.909 46.5463C117.172 47.2124 119.508 47.8994 122.918 48.6071C126.875 49.3148 130.033 50.2099 132.39 51.2923C134.748 52.3331 136.474 53.707 137.568 55.4139C138.663 57.0791 139.21 59.2024 139.21 61.7835C139.21 65.4471 137.842 68.4654 135.106 70.8384C132.411 73.2114 128.77 74.6893 124.181 75.2722V79.6435C124.181 80.1014 124.034 80.4761 123.739 80.7675C123.444 81.059 123.065 81.2047 122.602 81.2047H117.108Z" fill="#A6F172"/>
</svg>
