<svg width="277" height="175" viewBox="0 0 277 175" fill="none" xmlns="http://www.w3.org/2000/svg">
<rect y="6" width="277" height="169" rx="4" fill="#E9E9F0"/>
<rect width="277" height="169" rx="4" fill="white"/>
<path d="M0 4C0 1.79086 1.79086 0 4 0H273C275.209 0 277 1.79086 277 4V20H0V4Z" fill="#22272C"/>
<path d="M262.484 12.79H263.292V13.5203C263.292 14.5036 263.784 15 264.776 15H269.521C270.504 15 271 14.5036 271 13.5203V8.68974C271 7.70644 270.504 7.21002 269.521 7.21002H268.708V6.47971C268.708 5.49642 268.212 5 267.229 5H262.484C261.491 5 261 5.49642 261 6.47971V11.3103C261 12.2936 261.491 12.79 262.484 12.79ZM262.493 12.0215C262.021 12.0215 261.761 11.7637 261.761 11.2673V6.52267C261.761 6.02625 262.021 5.7685 262.493 5.7685H267.215C267.682 5.7685 267.947 6.02625 267.947 6.52267V7.21002H264.776C263.784 7.21002 263.292 7.70167 263.292 8.68974V12.0215H262.493ZM264.785 14.2315C264.318 14.2315 264.053 13.9737 264.053 13.4773V8.7327C264.053 8.23628 264.318 7.97852 264.785 7.97852H269.507C269.974 7.97852 270.239 8.23628 270.239 8.7327V13.4773C270.239 13.9737 269.974 14.2315 269.507 14.2315H264.785Z" fill="#AEB4BA"/>
<path d="M184.306 64.1481C180.775 59.6089 175.732 57.0871 170.184 57.0871H112.183L111.174 51.0348C110.67 49.0174 108.652 47 106.131 47H96.0436C93.0174 47 91 49.0174 91 52.0436C91 55.0697 93.0174 57.0871 96.0436 57.0871H102.096L103.105 63.1394L109.157 98.4443L110.166 104.497C111.174 112.062 117.731 117.61 125.296 117.61H173.714C176.74 117.61 178.758 115.592 178.758 112.566C178.758 109.54 176.74 107.523 173.714 107.523H125.296C122.774 107.523 120.253 105.505 119.748 102.983V102.479H167.158C175.227 102.479 181.784 97.4356 184.306 89.8702L187.332 79.7831C188.845 74.2352 187.332 68.6873 184.306 64.1481ZM177.245 76.757L174.219 86.8441C173.21 89.8702 170.184 92.392 167.158 92.392H117.731L113.696 67.1742H170.184C172.706 67.1742 174.723 68.1829 176.236 70.2004C177.749 72.2178 178.254 74.7396 177.245 76.757Z" fill="#22272C"/>
<path d="M123.783 137.784C127.961 137.784 131.348 134.397 131.348 130.219C131.348 126.041 127.961 122.653 123.783 122.653C119.605 122.653 116.218 126.041 116.218 130.219C116.218 134.397 119.605 137.784 123.783 137.784Z" fill="#22272C"/>
<path d="M164.132 137.784C168.31 137.784 171.697 134.397 171.697 130.219C171.697 126.041 168.31 122.653 164.132 122.653C159.954 122.653 156.566 126.041 156.566 130.219C156.566 134.397 159.954 137.784 164.132 137.784Z" fill="#22272C"/>
<circle cx="11" cy="10" r="4" fill="#ED6A5F"/>
<circle cx="23" cy="10" r="4" fill="#F5BE50"/>
<circle cx="35" cy="10" r="4" fill="#62C554"/>
</svg>
