<svg width="223" height="62" viewBox="0 0 223 62" fill="none" xmlns="http://www.w3.org/2000/svg">
<path d="M18.5478 6.1826V0H43.2782V6.1826H49.4608V12.3652H55.6434V18.5478H61.826V43.2782H55.6434V49.4608H49.4608V55.6434H43.2782V61.826H18.5478V55.6434H12.3652V49.4608H6.1826V43.2782H0V18.5478H6.1826V12.3652H12.3652V6.1826H18.5478Z" fill="#FCC601"/>
<path d="M12.3651 12.3652H18.5477V18.5478H12.3651V12.3652Z" fill="#FFF15D"/>
<path d="M43.2781 12.3652H49.4607V18.5478H43.2781V12.3652Z" fill="#FFF15D"/>
<rect x="18.5479" y="18.5478" width="24.7304" height="24.7304" fill="#F8A700"/>
<path d="M12.3651 43.2782H18.5477V49.4608H12.3651V43.2782Z" fill="#C87B00"/>
<path d="M43.2781 43.2782H49.4607V49.4608H43.2781V43.2782Z" fill="#C87B00"/>
<path d="M18.5478 6.18262H49.4608V12.3652H18.5478V6.18262Z" fill="#F8A700"/>
<path d="M49.4608 12.3652H55.6434V43.2782H49.4608V12.3652Z" fill="#F8A700"/>
<path d="M6.18262 18.5478H12.3652V49.4608H6.18262V18.5478Z" fill="#F8A700"/>
<path d="M12.3652 49.4608H43.2782V55.6434H12.3652V49.4608Z" fill="#F8A700"/>
<path d="M55.6435 18.5478H61.8261V43.2782H55.6435V18.5478Z" fill="#E88F00"/>
<path d="M49.4609 43.2782H55.6435V49.4608H49.4609V43.2782Z" fill="#E88F00"/>
<path d="M43.2783 49.4608H49.4609V55.6434H43.2783V49.4608Z" fill="#E88F00"/>
<path d="M18.5479 55.6434H43.2783V61.826H18.5479V55.6434Z" fill="#E88F00"/>
<path d="M10.9689 42.0949H29.3603V19.844H21.7855V37.8036H18.5437V33.0992H10.9689V42.0949Z" fill="black"/>
<path d="M29.3415 19.844H21.6972V42.0949H29.3415V33.0992H32.1528V37.8036H37.807V33.0992H40.6183V42.0949H48.2626V19.844H40.6183V24.1352H37.807V28.8079H32.1528V24.1352H29.3415V19.844Z" fill="black"/>
<path d="M80.1606 30.6998H93.7355V14.5202H88.1445V27.5795H85.7517V24.1586H80.1606V30.6998Z" fill="white"/>
<path d="M100.918 14.5202H95.3497V30.6998H108.925L108.902 14.5202H103.334V27.5795H100.918V14.5202Z" fill="white"/>
<path d="M124.091 30.6998V21.0383H116.107V17.6406H124.091V14.5202H110.539V24.1586H118.523V27.5795H110.539V30.6998H124.091Z" fill="white"/>
<path d="M135.322 17.6406H139.28V14.4971H125.728V17.6406H129.754V30.6998H135.322V17.6406Z" fill="white"/>
<path d="M146.485 14.5202H140.917V30.6998H146.485V24.1818H148.533V27.5795H152.651V24.1818H154.699V30.6998H160.267V14.5202H154.699V17.6406H152.651V21.0383H148.533V17.6406H146.485V14.5202Z" fill="white"/>
<path d="M161.903 30.6998H175.478V14.5202H161.903V30.6305V30.6998ZM167.471 17.6406H169.887V27.5795H167.471V17.6406Z" fill="white"/>
<path d="M187.008 14.5202V21.0383H184.96V17.6406H182.683V14.5202H177.115V30.6998H182.683V22.6794H184.891V26.1002H187.008V30.6998H192.576V14.5202H187.008Z" fill="white"/>
<path d="M199.782 24.1818H207.788V21.0383H199.782V17.6406H207.788V14.5202H194.214V30.6998H207.788V27.5795H199.782V24.1818Z" fill="white"/>
<path d="M214.993 14.5202H209.425V22.61H213.383V30.6998H218.974V22.61H223V14.5202H217.409V19.4203H214.993V14.5202Z" fill="white"/>
<path d="M198.626 47.5363V39.4658H200.126V41.5656H198.626V43.5082H203.597V37.5375H195.169V47.5363H198.626ZM213.026 47.5363L213.04 37.5375H204.613V47.5363H208.07V43.5082H209.569V47.5363H213.026ZM209.569 41.5656H208.07V39.4658H209.569V41.5656ZM217.513 37.5375H214.056V42.5369H216.513V47.5363H219.984V42.5369H222.484V37.5375H219.013V40.5657H217.513V37.5375Z" fill="white"/>
</svg>
