<svg width="159" height="33" viewBox="0 0 159 33" fill="none" xmlns="http://www.w3.org/2000/svg">
<g clip-path="url(#clip0_8_20777)">
<path fill-rule="evenodd" clip-rule="evenodd" d="M48.8385 0H4.9985C2.22409 0 -0.0218586 2.31261 0.000160533 5.11919V22.1832C0.000160533 25.0121 2.24611 27.3023 5.02052 27.3023H25.7845L35.2748 32.6909L33.1169 27.3023H48.8385C51.6129 27.3023 53.8588 25.0121 53.8588 22.1832V5.11919C53.8588 2.29016 51.6129 0 48.8385 0ZM4.07379 3.95165C3.45725 3.99656 2.99484 4.22109 2.68658 4.64768C2.37832 5.05183 2.26823 5.56823 2.33427 6.152C3.6334 14.5718 4.84445 20.2522 5.96742 23.1935C6.40781 24.2712 6.91425 24.7877 7.50877 24.7428C8.43356 24.6754 9.53451 23.3732 10.8336 20.8361C11.5162 19.399 12.5732 17.2436 14.0044 14.3696C15.1934 18.6131 16.8228 21.8015 18.8706 23.9345C19.4432 24.5407 20.0377 24.8101 20.6101 24.7652C21.1166 24.7203 21.5128 24.4508 21.7771 23.9569C21.9973 23.5303 22.0854 23.0363 22.0413 22.475C21.9092 20.4319 22.1075 17.5804 22.6579 13.9206C23.2303 10.1486 23.935 7.4318 24.7937 5.81522C24.9699 5.47843 25.0359 5.14163 25.0139 4.73749C24.9699 4.22107 24.7497 3.79448 24.3314 3.4577C23.913 3.12091 23.4505 2.96374 22.9441 3.00864C22.3056 3.05355 21.8211 3.36788 21.4909 3.99656C20.1257 6.5337 19.1568 10.6425 18.5844 16.3455C17.7476 14.19 17.043 11.6529 16.4925 8.66669C16.2504 7.342 15.6559 6.71332 14.687 6.78068C14.0264 6.82558 13.4759 7.27464 13.0356 8.12783L8.21338 17.4906C7.42068 14.2349 6.67203 10.2608 5.98945 5.56823C5.83531 4.40071 5.19675 3.86183 4.07379 3.95165ZM46.5045 5.56831C48.0679 5.90511 49.235 6.7583 50.0276 8.17281C50.7323 9.38526 51.0844 10.8447 51.0844 12.596C51.0844 14.9085 50.512 17.0191 49.367 18.95C48.0459 21.1953 46.3284 22.3179 44.1926 22.3179C43.8183 22.3179 43.4219 22.273 43.0034 22.1832C41.4402 21.8464 40.2731 20.9933 39.4804 19.5788C38.7759 18.3438 38.4235 16.862 38.4235 15.1331C38.4235 12.8205 38.9961 10.7099 40.141 8.80149C41.4842 6.55622 43.2017 5.43359 45.3156 5.43359C45.6898 5.43359 46.0862 5.4785 46.5045 5.56831ZM45.5798 17.7151C46.3945 16.9742 46.945 15.874 47.2533 14.3922C47.3413 13.8758 47.4073 13.3145 47.4073 12.7307C47.4073 12.0796 47.2752 11.3835 47.011 10.6875C46.6807 9.81185 46.2403 9.34035 45.7118 9.22808C44.9192 9.07091 44.1485 9.51997 43.4219 10.6201C42.8274 11.4733 42.453 12.3714 42.2549 13.292C42.1447 13.8084 42.1007 14.3698 42.1007 14.9311C42.1007 15.5822 42.2328 16.2782 42.497 16.9742C42.8274 17.8498 43.2677 18.3213 43.7962 18.4337C44.3466 18.5459 44.9411 18.2989 45.5798 17.7151ZM36.2216 8.17281C35.4289 6.7583 34.2399 5.90511 32.6986 5.56831C32.2801 5.4785 31.8839 5.43359 31.5094 5.43359C29.3957 5.43359 27.6782 6.55622 26.335 8.80149C25.19 10.7099 24.6176 12.8205 24.6176 15.1331C24.6176 16.862 24.9699 18.3438 25.6744 19.5788C26.4672 20.9933 27.6342 21.8464 29.1975 22.1832C29.6158 22.273 30.0122 22.3179 30.3866 22.3179C32.5224 22.3179 34.2399 21.1953 35.561 18.95C36.7061 17.0191 37.2785 14.9085 37.2785 12.596C37.2785 10.8447 36.9261 9.38526 36.2216 8.17281ZM33.4471 14.3922C33.139 15.874 32.5884 16.9742 31.7737 17.7151C31.1352 18.2989 30.5407 18.5459 29.9902 18.4337C29.4617 18.3213 29.0213 17.8498 28.6911 16.9742C28.4268 16.2782 28.2947 15.5822 28.2947 14.9311C28.2947 14.3698 28.3387 13.8084 28.4489 13.292C28.647 12.3714 29.0213 11.4733 29.6158 10.6201C30.3425 9.51997 31.1132 9.07091 31.9058 9.22808C32.4343 9.34035 32.8747 9.81185 33.205 10.6875C33.4692 11.3835 33.6013 12.0796 33.6013 12.7307C33.6013 13.3145 33.5573 13.8758 33.4471 14.3922Z" fill="#7F54B3"/>
<path d="M59.4297 7.97063C57.9544 9.4525 57.2278 11.3385 57.2278 13.6287C57.2278 16.076 57.9544 18.0742 59.4078 19.5786C60.861 21.083 62.7547 21.8463 65.1107 21.8463C65.7932 21.8463 66.5639 21.7341 67.4007 21.487V17.8497C66.63 18.0742 65.9694 18.1866 65.3969 18.1866C64.2298 18.1866 63.3051 17.7824 62.6004 16.9966C61.8959 16.1882 61.5436 15.1106 61.5436 13.7409C61.5436 12.4611 61.8959 11.4059 62.5785 10.5976C63.283 9.76683 64.1418 9.36268 65.1988 9.36268C65.8813 9.36268 66.6079 9.47494 67.4007 9.69947V6.06215C66.6741 5.86007 65.8594 5.77026 65.0005 5.77026C62.7547 5.7478 60.905 6.48875 59.4297 7.97063ZM74.711 5.7478C72.6853 5.7478 71.0999 6.44384 69.9548 7.81345C68.8099 9.18306 68.2594 11.114 68.2594 13.5838C68.2594 16.2557 68.8318 18.2988 69.9548 19.7133C71.0778 21.1279 72.7293 21.8463 74.8872 21.8463C76.979 21.8463 78.5863 21.1279 79.7093 19.7133C80.8322 18.2988 81.4048 16.3006 81.4048 13.7409C81.4048 11.1813 80.8322 9.20551 79.6873 7.81345C78.5203 6.44384 76.8688 5.7478 74.711 5.7478ZM76.4505 17.4231C76.0541 18.0519 75.4596 18.3662 74.711 18.3662C74.0064 18.3662 73.4779 18.0519 73.1036 17.4231C72.7293 16.7944 72.5531 15.5371 72.5531 13.6287C72.5531 10.6874 73.2797 9.22795 74.7551 9.22795C76.2964 9.22795 77.089 10.7098 77.089 13.696C77.067 15.5371 76.8468 16.7944 76.4505 17.4231ZM92.2822 6.17441L91.4895 9.60966C91.2913 10.4853 91.0932 11.3834 90.9171 12.304L90.4767 14.684C90.0583 12.304 89.4858 9.47494 88.7592 6.17441H83.6508L81.735 21.4646H85.5664L86.6013 10.9344L89.2215 21.4646H91.952L94.4621 10.9568L95.541 21.4646H99.5485L97.5227 6.17441H92.2822ZM110.624 6.17441L109.831 9.60966C109.633 10.4853 109.435 11.3834 109.259 12.304L108.819 14.684C108.4 12.304 107.828 9.47494 107.101 6.17441H101.993L100.077 21.4646H103.908L104.943 10.9344L107.563 21.4646H110.294L112.782 10.9568L113.861 21.4646H117.868L115.843 6.17441H110.624ZM123.087 15.4249H126.676V12.2591H123.087V9.45248H127.226V6.19686H119.035V21.487H127.249V18.2315H123.087V15.4249ZM138.654 13C139.073 12.304 139.293 11.5855 139.293 10.8446C139.293 9.40759 138.742 8.2625 137.642 7.43175C136.541 6.60101 135.021 6.17441 133.128 6.17441H128.415V21.4646H132.467V14.5044H132.533L135.814 21.4646H140.086L136.849 14.5717C137.619 14.2124 138.236 13.696 138.654 13ZM132.445 12.753V9.1157C133.414 9.13815 134.096 9.29532 134.515 9.60966C134.933 9.924 135.131 10.4179 135.131 11.1364C135.131 12.1917 134.229 12.7306 132.445 12.753ZM141.67 7.97063C140.196 9.4525 139.469 11.3385 139.469 13.6287C139.469 16.076 140.196 18.0742 141.649 19.5786C143.103 21.083 144.995 21.8463 147.352 21.8463C148.035 21.8463 148.806 21.7341 149.642 21.487V17.8497C148.872 18.0742 148.211 18.1866 147.638 18.1866C146.471 18.1866 145.547 17.7824 144.842 16.9966C144.137 16.1882 143.785 15.1106 143.785 13.7409C143.785 12.4611 144.137 11.4059 144.819 10.5976C145.524 9.76683 146.383 9.36268 147.439 9.36268C148.122 9.36268 148.849 9.47494 149.642 9.69947V6.06215C148.915 5.86007 148.101 5.77026 147.242 5.77026C145.018 5.7478 143.146 6.48875 141.67 7.97063ZM154.817 18.1866V15.4024H158.405V12.2366H154.817V9.43004H158.978V6.17441H150.787V21.4646H159V18.209H154.817V18.1866Z" fill="black"/>
</g>
<defs>
<clipPath id="clip0_8_20777">
<rect width="159" height="33" fill="white"/>
</clipPath>
</defs>
</svg>
