<svg width="159" height="46" viewBox="0 0 159 46" fill="none" xmlns="http://www.w3.org/2000/svg">
<path d="M34.2965 8.7124C34.2658 8.48391 34.07 8.35714 33.9075 8.34334C33.7463 8.32954 30.5875 8.2806 30.5875 8.2806C30.5875 8.2806 27.9456 5.6646 27.6846 5.39848C27.4237 5.13236 26.914 5.2127 26.7158 5.27295C26.7134 5.27421 26.2198 5.42986 25.3888 5.69221C25.2497 5.23279 25.0453 4.66791 24.7536 4.10052C23.8131 2.27033 22.4356 1.30252 20.7712 1.30001C20.7687 1.30001 20.7675 1.30001 20.765 1.30001C20.6493 1.30001 20.5348 1.31131 20.4192 1.32135C20.3699 1.26109 20.3206 1.2021 20.269 1.14435C19.5438 0.353533 18.6145 -0.0318366 17.5004 0.00205576C15.351 0.0648195 13.2102 1.64772 11.4745 4.45953C10.2533 6.43784 9.32383 8.92332 9.06041 10.8476C6.59218 11.6271 4.86627 12.1719 4.82811 12.1845C3.5823 12.5836 3.54291 12.6226 3.38041 13.8201C3.25977 14.7251 0 40.4282 0 40.4282L27.3178 45.2459L39.1579 42.2445C39.1579 42.2445 34.3273 8.94089 34.2965 8.7124ZM24.0211 6.12403C23.3921 6.32236 22.6768 6.54831 21.9013 6.79309C21.8853 5.68343 21.756 4.13944 21.2488 2.80508C22.88 3.12016 23.6826 5.00181 24.0211 6.12403ZM20.472 7.24498C19.0404 7.69686 17.4782 8.19019 15.9111 8.6848C16.3518 6.9638 17.1877 5.25036 18.2144 4.12689C18.596 3.70888 19.1302 3.24317 19.763 2.97705C20.3575 4.24237 20.4868 6.03365 20.472 7.24498ZM17.5434 1.46068C18.0481 1.44938 18.4728 1.56236 18.836 1.80588C18.255 2.11343 17.6936 2.55528 17.1668 3.13145C15.8015 4.62523 14.7551 6.94372 14.3378 9.18062C13.0366 9.59108 11.7637 9.99407 10.5918 10.3631C11.3317 6.84205 14.2258 1.55859 17.5434 1.46068Z" fill="#95BF47"/>
<path d="M33.9087 8.34462C33.7475 8.33082 30.5887 8.28188 30.5887 8.28188C30.5887 8.28188 27.9469 5.66587 27.6859 5.39976C27.5887 5.30058 27.457 5.24912 27.319 5.22778L27.3203 45.2447L39.1591 42.2446C39.1591 42.2446 34.3286 8.94217 34.2978 8.71368C34.267 8.48519 34.07 8.35842 33.9087 8.34462Z" fill="#5E8E3E"/>
<path d="M20.7564 14.552L19.3814 19.7977C19.3814 19.7977 17.8475 19.086 16.0293 19.2027C13.3628 19.3747 13.3345 21.0894 13.3616 21.52C13.5069 23.8661 19.5598 24.3783 19.8996 29.8738C20.1667 34.197 17.6505 37.1544 14.0251 37.3879C9.67341 37.6678 7.27783 35.0506 7.27783 35.0506L8.19989 31.0513C8.19989 31.0513 10.6114 32.9066 12.5417 32.7823C13.8023 32.7007 14.2528 31.6551 14.2073 30.9157C14.0177 27.8553 9.08866 28.0361 8.77725 23.0075C8.51501 18.776 11.2406 14.488 17.2541 14.1013C19.5709 13.9495 20.7564 14.552 20.7564 14.552Z" fill="white"/>
<path d="M54.7494 25.5365C53.388 24.7833 52.6883 24.1483 52.6883 23.2755C52.6883 22.165 53.6602 21.4515 55.1779 21.4515C56.9447 21.4515 58.5222 22.2048 58.5222 22.2048L59.7664 18.3178C59.7664 18.3178 58.6223 17.4052 55.2549 17.4052C50.5686 17.4052 47.3208 20.1417 47.3208 23.9889C47.3208 26.1702 48.8373 27.8361 50.8605 29.0251C52.4942 29.9763 53.0778 30.6511 53.0778 31.6422C53.0778 32.6731 52.261 33.506 50.7445 33.506C48.4844 33.506 46.3501 32.3157 46.3501 32.3157L45.0278 36.2027C45.0278 36.2027 46.9997 37.5511 50.3171 37.5511C55.1401 37.5511 58.6016 35.132 58.6016 30.7694C58.6004 28.4312 56.8507 26.7654 54.7494 25.5365Z" fill="black"/>
<path d="M73.9631 17.3666C71.5905 17.3666 69.7236 18.517 68.2853 20.2614L68.2071 20.2215L70.2681 9.23651H64.9007L59.6895 37.1951H65.0569L66.8457 27.6382C67.5453 24.0288 69.3731 21.8089 71.085 21.8089C72.2901 21.8089 72.7578 22.6418 72.7578 23.8321C72.7578 24.5854 72.6796 25.498 72.5245 26.2512L70.5026 37.1964H75.8703L77.9699 25.8939C78.2036 24.7036 78.3596 23.2768 78.3596 22.3243C78.3574 19.2304 76.763 17.3666 73.9631 17.3666Z" fill="black"/>
<path d="M90.4917 17.3666C84.0348 17.3666 79.7581 23.3154 79.7581 29.9378C79.7581 34.1809 82.3243 37.591 87.1476 37.591C93.4868 37.591 97.7651 31.8016 97.7651 25.0198C97.7651 21.0942 95.5087 17.3666 90.4917 17.3666ZM87.8472 33.389C86.019 33.389 85.241 31.8028 85.241 29.8195C85.241 26.6869 86.8362 21.5711 89.7529 21.5711C91.6587 21.5711 92.2799 23.2369 92.2799 24.863C92.2799 28.2333 90.687 33.389 87.8472 33.389Z" fill="black"/>
<path d="M111.494 17.3666C107.871 17.3666 105.815 20.6186 105.815 20.6186H105.738L106.049 17.6841H101.304C101.071 19.6674 100.643 22.6804 100.216 24.9414L96.4819 44.9679H101.849L103.326 36.8776H103.444C103.444 36.8776 104.545 37.591 106.594 37.591C112.894 37.591 117.017 31.0085 117.017 24.3451C117.017 20.6585 115.421 17.3666 111.494 17.3666ZM106.36 33.4674C104.967 33.4674 104.142 32.6743 104.142 32.6743L105.037 27.5585C105.66 24.1483 107.409 21.8873 109.277 21.8873C110.91 21.8873 111.415 23.4337 111.415 24.9016C111.415 28.4312 109.354 33.4674 106.36 33.4674Z" fill="black"/>
<path d="M124.678 9.51416C122.968 9.51416 121.606 10.9024 121.606 12.6865C121.606 14.3126 122.617 15.4231 124.134 15.4231H124.212C125.884 15.4231 127.323 14.2727 127.362 12.2508C127.362 10.6645 126.312 9.51416 124.678 9.51416Z" fill="black"/>
<path d="M117.173 37.1951H122.539L126.196 17.8036H120.789L117.173 37.1951Z" fill="black"/>
<path d="M139.847 17.7638H136.113L136.307 16.8512C136.618 14.9873 137.707 13.3215 139.496 13.3215C140.451 13.3215 141.207 13.5991 141.207 13.5991L142.257 9.31622C142.257 9.31622 141.324 8.84061 139.339 8.84061C137.434 8.84061 135.529 9.39585 134.09 10.6645C132.261 12.2508 131.406 14.5503 130.978 16.8512L130.824 17.7638H128.334L127.556 21.8886H130.046L127.207 37.1964H132.574L135.413 21.8886H139.108L139.847 17.7638Z" fill="black"/>
<path d="M152.758 17.8036C152.758 17.8036 149.403 26.423 147.897 31.128H147.818C147.716 29.6128 146.496 17.8036 146.496 17.8036H140.856L144.086 35.6089C144.164 36.0049 144.125 36.2439 143.969 36.5215C143.346 37.7504 142.296 38.9407 141.052 39.8134C140.041 40.5666 138.913 41.0422 138.019 41.3597L139.496 46C140.586 45.7622 142.84 44.8496 144.746 43.0256C147.197 40.6862 149.452 37.0768 151.785 32.1589L158.358 17.8024H152.758V17.8036Z" fill="black"/>
</svg>
