<svg width="224" height="259" viewBox="0 0 224 259" fill="none" xmlns="http://www.w3.org/2000/svg">
<rect width="224" height="259" rx="8.67424" fill="#FDFDFE"/>
<rect x="12.9933" y="68.4315" width="197.498" height="49.3746" rx="1.73244" fill="#E9E9F0"/>
<g filter="url(#filter0_d_8_23393)">
<rect x="22.0886" y="77.5267" width="31.1839" height="31.1839" rx="1.73244" fill="white"/>
</g>
<rect x="62.5364" y="80.8472" width="20.3562" height="6.49665" rx="1.73244" fill="#ACACBD"/>
<rect x="62.5364" y="93.8406" width="129.5" height="5.19732" rx="1.73244" fill="#DADAE7"/>
<rect x="62.5364" y="101.636" width="52.8395" height="5.19732" rx="1.73244" fill="#DADAE7"/>
<rect x="28.5853" y="84.0234" width="18.1906" height="18.1906" rx="1.73244" fill="#ACACBD"/>
<rect x="12.9933" y="130.799" width="197.498" height="49.3746" rx="1.73244" fill="#E9E9F0"/>
<g filter="url(#filter1_d_8_23393)">
<rect x="22.0886" y="139.895" width="31.1839" height="31.1839" rx="1.73244" fill="white"/>
</g>
<rect x="62.5364" y="143.215" width="20.3562" height="6.49665" rx="1.73244" fill="#ACACBD"/>
<rect x="62.5364" y="156.208" width="129.5" height="5.19732" rx="1.73244" fill="#DADAE7"/>
<rect x="62.5364" y="164.004" width="52.8395" height="5.19732" rx="1.73244" fill="#DADAE7"/>
<rect x="28.5853" y="146.391" width="18.1906" height="18.1906" rx="1.73244" fill="#ACACBD"/>
<rect x="12.9933" y="200.963" width="197.498" height="37.2475" rx="18.6237" fill="#ACACBD"/>
<rect x="85.7559" y="21.2224" width="51.5401" height="17.7575" rx="1.73244" fill="#ACACBD"/>
<rect x="85.7559" y="45.0435" width="51.5401" height="5.63043" rx="1.73244" fill="#E9E9F0"/>
<defs>
<filter id="filter0_d_8_23393" x="22.0886" y="77.5267" width="36.1407" height="36.1407" filterUnits="userSpaceOnUse" color-interpolation-filters="sRGB">
<feFlood flood-opacity="0" result="BackgroundImageFix"/>
<feColorMatrix in="SourceAlpha" type="matrix" values="0 0 0 0 0 0 0 0 0 0 0 0 0 0 0 0 0 0 127 0" result="hardAlpha"/>
<feOffset dx="2.47835" dy="2.47835"/>
<feGaussianBlur stdDeviation="1.23918"/>
<feComposite in2="hardAlpha" operator="out"/>
<feColorMatrix type="matrix" values="0 0 0 0 0 0 0 0 0 0 0 0 0 0 0 0 0 0 0.02 0"/>
<feBlend mode="normal" in2="BackgroundImageFix" result="effect1_dropShadow_8_23393"/>
<feBlend mode="normal" in="SourceGraphic" in2="effect1_dropShadow_8_23393" result="shape"/>
</filter>
<filter id="filter1_d_8_23393" x="22.0886" y="139.895" width="36.1407" height="36.1407" filterUnits="userSpaceOnUse" color-interpolation-filters="sRGB">
<feFlood flood-opacity="0" result="BackgroundImageFix"/>
<feColorMatrix in="SourceAlpha" type="matrix" values="0 0 0 0 0 0 0 0 0 0 0 0 0 0 0 0 0 0 127 0" result="hardAlpha"/>
<feOffset dx="2.47835" dy="2.47835"/>
<feGaussianBlur stdDeviation="1.23918"/>
<feComposite in2="hardAlpha" operator="out"/>
<feColorMatrix type="matrix" values="0 0 0 0 0 0 0 0 0 0 0 0 0 0 0 0 0 0 0.02 0"/>
<feBlend mode="normal" in2="BackgroundImageFix" result="effect1_dropShadow_8_23393"/>
<feBlend mode="normal" in="SourceGraphic" in2="effect1_dropShadow_8_23393" result="shape"/>
</filter>
</defs>
</svg>
