<svg width="174" height="39" viewBox="0 0 174 39" fill="none" xmlns="http://www.w3.org/2000/svg">
<path d="M68.0735 12.2427C69.141 12.8934 70.0443 13.7882 70.6189 15.0083C71.2759 16.2285 71.6043 17.6927 71.6043 19.3194C71.6043 20.9463 71.2759 22.3292 70.5369 23.5493C69.88 24.7694 68.8946 25.6643 67.6628 26.2336C66.4313 26.8844 64.9531 27.2098 63.3931 27.2098C62.4898 27.2098 61.6685 27.047 60.8475 26.7218C60.0263 26.4778 59.2873 25.9895 58.7124 25.4203V33.8799H53.9499V11.5919H58.0555L58.4662 13.3815C60.2726 11.9173 62.2434 11.1852 64.2962 11.1852C65.6921 11.1852 67.0059 11.5106 68.0735 12.2427ZM65.4459 22.3292C66.2669 21.5972 66.6775 20.6209 66.6775 19.4008C66.6775 18.1807 66.2669 17.2046 65.5279 16.3911C64.789 15.5777 63.8036 15.2523 62.7362 15.2523C61.8329 15.2523 61.0116 15.415 60.3547 15.8217C59.6978 16.1471 59.2052 16.7165 58.7947 17.4487V21.109C59.0409 21.8412 59.5337 22.4105 60.1085 22.8173C60.7654 23.2239 61.5044 23.4679 62.4077 23.4679C63.6393 23.4679 64.6246 23.0613 65.4459 22.3292Z" fill="black"/>
<path d="M74.3985 15.0896C75.1376 13.9507 76.1228 12.9746 77.4366 12.3239C78.7505 11.6731 80.2286 11.2664 81.8709 11.2664C83.5132 11.2664 84.9912 11.5918 86.305 12.3239C87.5367 12.9746 88.5221 13.9507 89.2611 15.1709C90.0001 16.391 90.3285 17.6926 90.3285 19.2381C90.3285 20.7836 90.0001 22.0851 89.2611 23.3052C88.5221 24.5253 87.6188 25.5014 86.305 26.1522C85.0732 26.8029 83.5132 27.2097 81.8709 27.2097C80.2286 27.2097 78.7505 26.8843 77.4366 26.2336C76.1228 25.5828 75.1376 24.6881 74.3985 23.4678C73.7416 22.2477 73.331 20.8648 73.331 19.2381C73.331 17.6926 73.7416 16.3097 74.3985 15.0896ZM79.2432 22.1663C79.9002 22.9798 80.8035 23.3052 81.8709 23.3052C82.9384 23.3052 83.8416 22.8985 84.4986 22.1663C85.1555 21.4343 85.4839 20.3768 85.4839 19.2381C85.4839 18.018 85.1555 17.0418 84.4986 16.3097C83.7594 15.4963 82.9383 15.0896 81.7888 15.0896C80.7212 15.0896 79.9002 15.4963 79.1612 16.2283C78.5043 17.0418 78.1758 18.018 78.1758 19.2381C78.1758 20.3768 78.5043 21.353 79.2432 22.1663Z" fill="black"/>
<path d="M98.0457 0.0395508V26.8014H93.2831V0.0395508H98.0457Z" fill="black"/>
<path d="M117.588 11.9957L107.898 33.9583H103.3L106.913 26.0681L100.015 11.9957H105.435L109.376 20.7807L113.318 11.9957H117.588Z" fill="black"/>
<path d="M135.817 11.9985V26.8029C135.817 28.1858 135.406 29.4873 134.585 30.6261C133.764 31.7648 132.696 32.6597 131.3 33.3104C129.905 33.9612 128.427 34.2864 126.784 34.2864C125.552 34.2864 124.485 34.1238 123.582 33.8798C122.678 33.5544 121.939 33.229 121.365 32.9037C120.708 32.4969 120.051 32.0089 119.312 31.3582L122.104 28.1044C122.761 28.7552 123.5 29.2432 124.157 29.5687C124.814 29.8939 125.717 30.1379 126.702 30.1379C127.934 30.1379 128.919 29.8127 129.74 29.2432C130.561 28.6738 130.972 27.7791 130.972 26.7216V24.6067C130.479 25.3387 129.822 25.9896 128.837 26.4776C127.852 26.9657 126.702 27.2097 125.388 27.2097C124.075 27.2097 122.761 26.8843 121.611 26.1522C120.461 25.5014 119.558 24.5253 118.819 23.3052C118.162 22.0851 117.752 20.7836 117.752 19.3195C117.752 17.8552 118.08 16.4724 118.819 15.2522C119.558 14.0321 120.461 13.056 121.693 12.3239C122.843 11.5918 124.075 11.2664 125.388 11.2664C126.62 11.2664 127.687 11.4291 128.673 11.7545C129.658 12.0799 130.397 12.5679 130.89 13.1373L131.383 11.9985H135.817ZM130.972 21.109V17.4485C130.643 16.7164 130.151 16.147 129.412 15.7403C128.673 15.3336 127.852 15.0896 126.866 15.0896C125.717 15.0896 124.731 15.4963 123.91 16.2283C123.089 16.9604 122.678 17.9366 122.678 19.1567C122.678 20.2955 123.089 21.353 123.91 22.1663C124.731 22.9798 125.717 23.3866 126.866 23.3866C128.755 23.3052 130.151 22.5731 130.972 21.109Z" fill="black"/>
<path d="M139.757 15.0897C140.496 13.8695 141.481 12.9747 142.795 12.2427C144.109 11.5919 145.587 11.1852 147.229 11.1852C148.872 11.1852 150.35 11.5106 151.663 12.2427C152.895 12.8934 153.88 13.8695 154.619 15.0897C155.276 16.3098 155.687 17.6113 155.687 19.1568C155.687 20.7023 155.358 22.0038 154.619 23.2239C153.963 24.444 152.977 25.4203 151.663 26.0709C150.432 26.7218 148.872 27.1284 147.229 27.1284C145.587 27.1284 144.109 26.803 142.795 26.1523C141.481 25.5015 140.496 24.6068 139.757 23.3867C139.018 22.1664 138.689 20.7837 138.689 19.0754C138.689 17.6927 139.018 16.3098 139.757 15.0897ZM144.52 22.1664C145.176 22.9799 146.08 23.3053 147.147 23.3053C148.215 23.3053 149.118 22.8985 149.775 22.1664C150.432 21.4344 150.76 20.3769 150.76 19.2382C150.76 18.0179 150.432 17.0419 149.775 16.3098C149.118 15.5777 148.215 15.171 147.147 15.171C146.08 15.171 145.259 15.5777 144.52 16.3098C143.78 17.0419 143.452 18.0993 143.452 19.2382C143.534 20.3769 143.863 21.353 144.52 22.1664Z" fill="black"/>
<path d="M172.523 12.4866C173.509 13.3 173.918 14.3575 174 15.659V26.8029H169.156V17.4485C169.074 15.9843 168.335 15.2522 166.939 15.2522C165.871 15.2522 164.968 15.7403 164.311 16.7977C163.654 17.8552 163.326 19.1567 163.326 20.7022V26.8029H158.563V11.9985H162.915L163.244 14.3575C163.819 13.3813 164.558 12.6493 165.543 12.0799C166.528 11.5105 167.678 11.2664 168.992 11.2664C170.387 11.2664 171.619 11.6731 172.523 12.4866Z" fill="black"/>
<path d="M33.5845 11.7541C32.7633 11.266 31.6958 11.266 30.7927 11.7541L24.3877 15.4959L20.0357 17.9362L13.6309 21.6779C12.8097 22.1659 11.7423 22.1659 10.839 21.6779L5.74796 18.7495C4.92682 18.2614 4.35203 17.3668 4.35203 16.3906V10.6153C4.35203 9.63914 4.84471 8.74437 5.74796 8.25631L10.7569 5.40931C11.578 4.92125 12.6455 4.92125 13.5488 5.40931L18.5577 8.25631C19.3788 8.74437 19.9536 9.63914 19.9536 10.6153V14.357L24.3056 11.8354V8.09364C24.3056 7.11751 23.813 6.22274 22.9097 5.73468L13.6309 0.366044C12.8097 -0.122015 11.7423 -0.122015 10.839 0.366044L1.39593 5.73468C0.492682 6.22274 0 7.11751 0 8.09364V18.9123C0 19.8884 0.492682 20.7832 1.39593 21.2713L10.839 26.6399C11.6601 27.1279 12.7276 27.1279 13.6309 26.6399L20.0357 22.9794L24.3877 20.4578L30.7927 16.7973C31.6138 16.3093 32.6812 16.3093 33.5845 16.7973L38.5934 19.6443C39.4145 20.1324 39.9893 21.0272 39.9893 22.0033V27.7786C39.9893 28.7548 39.4967 29.6495 38.5934 30.1376L33.5845 33.066C32.7633 33.554 31.6958 33.554 30.7927 33.066L25.7838 30.2189C24.9626 29.7309 24.3877 28.8361 24.3877 27.86V24.1183L20.0357 26.6399V30.3816C20.0357 31.3577 20.5285 32.2525 21.4316 32.7405L30.8748 38.1092C31.6958 38.5972 32.7633 38.5972 33.6666 38.1092L43.1098 32.7405C43.9308 32.2525 44.5057 31.3577 44.5057 30.3816V19.5629C44.5057 18.5869 44.0129 17.6922 43.1098 17.2041L33.5845 11.7541Z" fill="#8247E5"/>
</svg>
