<svg width="174" height="54" viewBox="0 0 174 54" fill="none" xmlns="http://www.w3.org/2000/svg">
<path fill-rule="evenodd" clip-rule="evenodd" d="M0 0L21.6211 53.7517L51.7446 17.4873L41.0798 7.46969L0 0ZM7.66496 4.27565L37.2755 9.66075L25.7817 19.1231L7.66496 4.27565ZM5.61158 6.27555L24.4924 21.7497L21.5402 45.8792L5.61158 6.27555ZM40.4186 10.7605L46.7024 16.6634L29.5162 19.7389L40.4186 10.7605ZM27.2253 23.0297L46.2567 19.6252L24.4275 45.9046L27.2253 23.0297Z" fill="#F9002D"/>
<path fill-rule="evenodd" clip-rule="evenodd" d="M110.736 25.6901C112.125 24.3786 112.83 22.5761 112.83 20.3317C112.83 12.2008 105.507 12.2044 105.432 12.202L90.0011 12.2008V37.7448H92.5448V14.7475H105.359C105.746 14.7666 110.287 15.1094 110.287 20.3317C110.287 21.8618 109.866 23.0049 109 23.8279C107.35 25.3963 104.596 25.272 104.575 25.2697L94.4531 25.2673V37.7448H96.9968V27.8151H104.483L110.467 37.832H113.431L107.261 27.5033C108.396 27.2191 109.679 26.6875 110.736 25.6901Z" fill="black"/>
<path fill-rule="evenodd" clip-rule="evenodd" d="M69.4471 37.7477H71.9908V20.1733H69.4471V37.7477Z" fill="black"/>
<path fill-rule="evenodd" clip-rule="evenodd" d="M61.4147 14.7164H84.2017V12.2008H61.4147V14.7164Z" fill="black"/>
<path fill-rule="evenodd" clip-rule="evenodd" d="M73.8998 37.7477H76.4423V20.1733H73.8998V37.7477Z" fill="black"/>
<path fill-rule="evenodd" clip-rule="evenodd" d="M155.505 37.6339H158.079V28.3599H155.505V37.6339Z" fill="black"/>
<path fill-rule="evenodd" clip-rule="evenodd" d="M171.426 12.3725V32.8758L150.887 9.69092V37.5821H153.461V17.2627L174 40.4477V12.3725H171.426Z" fill="black"/>
<path fill-rule="evenodd" clip-rule="evenodd" d="M132.475 35.2611C126.69 35.2611 121.983 30.6062 121.983 24.8846C121.983 19.1631 126.69 14.5082 132.475 14.5082C138.261 14.5082 142.968 19.1631 142.968 24.8846C142.968 30.6062 138.261 35.2611 132.475 35.2611ZM132.475 11.9639C125.271 11.9639 119.41 17.7607 119.41 24.8846C119.41 32.0097 125.271 37.8054 132.475 37.8054C139.68 37.8054 145.541 32.0097 145.541 24.8846C145.541 17.7607 139.68 11.9639 132.475 11.9639Z" fill="black"/>
<path fill-rule="evenodd" clip-rule="evenodd" d="M132.473 22.8484C131.497 22.8484 130.706 23.6307 130.706 24.5947C130.706 25.561 131.497 26.3422 132.473 26.3422C133.449 26.3422 134.24 25.561 134.24 24.5947C134.24 23.6307 133.449 22.8484 132.473 22.8484Z" fill="black"/>
</svg>
